<?xml version="1.0" encoding="utf-8"?>
<!-- Generator: Adobe Illustrator 19.2.0, SVG Export Plug-In . SVG Version: 6.00 Build 0)  -->
<svg version="1.1" xmlns="http://www.w3.org/2000/svg" xmlns:xlink="http://www.w3.org/1999/xlink" x="0px" y="0px"
	 viewBox="0 0 516.2 159.6" style="enable-background:new 0 0 516.2 159.6;" xml:space="preserve">
<style type="text/css">
	.st0{opacity:0.15;}
	.st1{fill:#FFFFFF;}
	.st2{opacity:0.15;fill:#FFFFFF;}
</style>
<g id="Gears_x5F_Back">
</g>
<g id="Clouds">
</g>
<g id="Gears_x5F_Front">
	<g class="st0">
		<path class="st1" d="M299.3,23.3c0.1,0.4,0.3,0.7,0.4,1.1c0.1,0.2,0.2,0.3,0.2,0.5c0,0.1,0.1,0.1,0.1,0.2c0,0.1,0.1,0.1,0.1,0.2
			c0.2,0.3,0.4,0.5,0.6,0.7c0.1,0.1,0.2,0.2,0.3,0.3c0.1,0.1,0.2,0.2,0.3,0.2c0.1,0.1,0.2,0.1,0.3,0.2c0.1,0.1,0.2,0.1,0.4,0.1
			c0.5,0.1,1,0.1,1.5-0.2c0.5-0.2,1.1-0.5,1.7-1c0.6-0.4,1.1-1,1.7-1.7c0.5-0.6,0.9-1.2,1.3-1.9c-2.9-1.3-6.2-2.1-9.6-2.2
			c0,0.8,0.1,1.6,0.3,2.3C299.1,22.5,299.2,22.9,299.3,23.3z"/>
		<path class="st1" d="M282.6,53.3c0-0.1,0-0.2-0.1-0.4c0-0.1-0.1-0.2-0.1-0.3c-0.1-0.2-0.3-0.4-0.5-0.6c-0.2-0.2-0.4-0.3-0.7-0.5
			c-0.3-0.1-0.5-0.3-0.8-0.4c-0.3-0.1-0.7-0.2-1-0.2c-0.7-0.1-1.5-0.2-2.4-0.2c-0.6,0-1.3,0.1-2,0.2c0.9,3.2,2.5,6.1,4.6,8.5
			c0.2-0.2,0.3-0.3,0.5-0.5c0.3-0.3,0.6-0.7,0.8-1c0.3-0.3,0.5-0.7,0.7-1c0.2-0.3,0.4-0.7,0.5-1c0.3-0.7,0.5-1.3,0.5-1.9
			C282.7,53.8,282.7,53.6,282.6,53.3z"/>
		<path class="st1" d="M276.2,46.5c0.8-0.3,1.5-0.7,2.1-1.1c0.3-0.2,0.6-0.4,0.8-0.6c0.2-0.2,0.4-0.4,0.6-0.7
			c0.2-0.2,0.3-0.5,0.4-0.7c0-0.1,0-0.1,0.1-0.2c0-0.1,0-0.1,0.1-0.2c0-0.1,0.1-0.2,0.1-0.4c0-0.1,0-0.3,0-0.4c0-0.1,0-0.2-0.1-0.4
			c0-0.1-0.1-0.2-0.1-0.4c-0.1-0.1-0.1-0.3-0.2-0.4c-0.1-0.2-0.3-0.5-0.5-0.8c-0.1-0.1-0.2-0.3-0.3-0.4c-0.1-0.1-0.2-0.2-0.4-0.4
			c-0.3-0.2-0.6-0.5-0.9-0.7c-0.3-0.2-0.7-0.5-1-0.7c-0.6-0.3-1.2-0.7-1.9-0.9c-0.6,2.1-0.9,4.4-0.9,6.7c0,1,0.1,2,0.2,3
			C274.9,47,275.6,46.8,276.2,46.5z"/>
		<path class="st1" d="M310.2,29.9c0,0.2,0,0.3,0.1,0.4c0,0.1,0.1,0.3,0.1,0.4c0,0.1,0.1,0.3,0.1,0.4c0.1,0.1,0.1,0.2,0.2,0.3
			c0,0.1,0.1,0.1,0.1,0.1c0,0,0.1,0.1,0.1,0.1c0.2,0.2,0.4,0.3,0.6,0.4c0.2,0.1,0.5,0.2,0.8,0.3c0.3,0.1,0.6,0.1,0.9,0.1
			c0.3,0,0.7,0,1,0c0.7-0.1,1.5-0.2,2.3-0.5c0.7-0.2,1.4-0.5,2.1-0.9c-1.8-2.8-4.1-5.2-6.9-7c-0.4,0.7-0.7,1.4-1,2.1
			c-0.1,0.4-0.3,0.8-0.4,1.2c-0.1,0.4-0.2,0.8-0.2,1.1c0,0.4-0.1,0.7-0.1,1c0,0.1,0,0.2,0,0.2C310.2,29.7,310.2,29.8,310.2,29.9z"/>
		<path class="st1" d="M288.8,26.7c0.6,0.4,1.2,0.6,1.8,0.8c0.5,0.1,1.1,0.1,1.5,0c0.2-0.1,0.5-0.2,0.7-0.4c0.2-0.2,0.4-0.3,0.6-0.6
			c0.1-0.1,0.2-0.2,0.2-0.4c0.1-0.1,0.2-0.3,0.2-0.4c0.1-0.3,0.3-0.6,0.4-1c0.2-0.7,0.4-1.5,0.5-2.3c0.1-0.7,0.1-1.5,0-2.3
			c-3.3,0.5-6.5,1.7-9.2,3.4c0.4,0.6,0.9,1.2,1.4,1.7C287.5,25.8,288.2,26.3,288.8,26.7z"/>
		<path class="st1" d="M228.9,50.8l3.2-11.2c-9.6-2.2-19.2,3.2-22.5,12.5l11.2,3.2C222.2,52.2,225.5,50.4,228.9,50.8z"/>
		<path class="st1" d="M226,61c0.3,0.2,0.6,0.4,1,0.5c0.4,0.1,0.8,0.1,1.1,0.1c0.9-0.1,1.6-0.5,2.2-1.2c0.2-0.3,0.4-0.6,0.5-1
			c0.1-0.4,0.1-0.8,0.1-1.1c-0.1-0.9-0.5-1.6-1.2-2.2c-0.3-0.2-0.6-0.4-1-0.5c-0.4-0.1-0.8-0.1-1.1-0.1c-0.9,0.1-1.6,0.5-2.2,1.2
			c-0.2,0.3-0.4,0.6-0.5,1c-0.1,0.4-0.1,0.8-0.1,1.1C224.9,59.6,225.3,60.4,226,61z"/>
		<path class="st1" d="M235.6,59.5l11.2,3.2c2.2-9.6-3.2-19.2-12.5-22.5l-3.2,11.2C234.2,52.9,236,56.1,235.6,59.5z"/>
		<path class="st1" d="M226.9,66.2l-3.2,11.2c9.6,2.2,19.2-3.2,22.5-12.5l-11.2-3.2C233.5,64.8,230.2,66.6,226.9,66.2z"/>
		<path class="st1" d="M221.5,76.7l3.2-11.2c-3.1-1.4-4.9-4.7-4.5-8.1L209,54.3C206.8,63.8,212.2,73.5,221.5,76.7z"/>
		<path class="st1" d="M279.7,34.5c0.2,0,0.4,0,0.6,0c0.2,0,0.4,0,0.6,0c0.4,0,0.7,0,1-0.1c0.3-0.1,0.6-0.1,0.9-0.2
			c0.1,0,0.3-0.1,0.4-0.2c0.1-0.1,0.2-0.1,0.3-0.2c0.1-0.1,0.2-0.1,0.3-0.2c0,0,0.1-0.1,0.1-0.1c0,0,0.1-0.1,0.1-0.1
			c0.2-0.2,0.3-0.4,0.3-0.7c0.1-0.2,0.1-0.5,0.2-0.8c0-0.3,0-0.6,0-0.9c0-0.3-0.1-0.7-0.2-1c-0.1-0.4-0.2-0.7-0.3-1.1
			c-0.1-0.4-0.3-0.8-0.5-1.1c-0.3-0.6-0.7-1.3-1.2-1.9c-2.5,2.2-4.5,4.8-5.9,7.8c0.7,0.3,1.4,0.5,2,0.6
			C278.8,34.4,279.3,34.4,279.7,34.5z"/>
		<path class="st1" d="M316.9,37.4c-0.2,0.3-0.4,0.6-0.6,0.8c-0.1,0.1-0.2,0.3-0.2,0.4c-0.1,0.1-0.1,0.3-0.2,0.4
			c-0.1,0.1-0.1,0.3-0.1,0.4c0,0.1-0.1,0.3-0.1,0.4c0,0.3,0,0.5,0,0.7c0,0.2,0.1,0.5,0.3,0.7c0,0.1,0.1,0.1,0.1,0.2
			c0,0.1,0.1,0.1,0.1,0.2c0.1,0.1,0.2,0.2,0.3,0.3c0.4,0.4,0.9,0.8,1.6,1.1c0.3,0.2,0.7,0.3,1,0.5c0.4,0.1,0.8,0.3,1.2,0.4
			c0.7,0.2,1.4,0.3,2.2,0.3c0,0,0-0.1,0-0.1c0-3.4-0.7-6.6-1.9-9.5c-0.7,0.3-1.4,0.8-1.9,1.2C317.9,36.3,317.3,36.9,316.9,37.4z"/>
		<path class="st1" d="M319.9,48.1c-0.4,0-0.8,0.1-1.2,0.2c-0.4,0.1-0.8,0.2-1.1,0.3c-0.3,0.1-0.7,0.2-1,0.4
			c-0.3,0.1-0.6,0.3-0.8,0.5c-0.2,0.2-0.4,0.3-0.6,0.5c-0.2,0.2-0.3,0.4-0.4,0.6c0,0.1-0.1,0.2-0.1,0.4c0,0.1,0,0.2,0,0.4
			c0,0.3,0,0.5,0.1,0.8c0.1,0.3,0.1,0.6,0.3,0.9c0.1,0.1,0.1,0.3,0.2,0.5c0.1,0.2,0.2,0.3,0.2,0.5c0.4,0.6,0.9,1.3,1.4,1.9
			c0.5,0.5,1,1,1.6,1.4c1.8-2.7,3-5.8,3.6-9.1C321.4,48.1,320.6,48.1,319.9,48.1z"/>
		<path class="st1" d="M404.3,90.4h111.8c-0.2-8-6.7-14.4-14.7-14.4c-6.8,0-12.6,4.7-14.2,11c-1.6-6.3-7.4-11-14.2-11
			c-6.8,0-12.6,4.7-14.2,11c-1.6-6.3-7.4-11-14.2-11c-6.8,0-12.6,4.7-14.2,11c-1.6-6.3-7.4-11-14.2-11c-5.6,0-10.5,3.1-12.9,7.7
			c-2.9-9.3-11.6-16.2-21.8-16.2h-15.4c1.3-1.3,2.5-2.8,3.3-4.5c0.2,0,0.3-0.1,0.5-0.1c0.3,0,0.7,0,1,0.2c0.1,0,0.2,0.1,0.2,0.1
			c0.1,0,0.1,0.1,0.2,0.1c0.1,0.1,0.3,0.2,0.4,0.3c0.1,0.1,0.3,0.2,0.4,0.4c0.1,0.1,0.2,0.3,0.3,0.4c0.2,0.3,0.3,0.7,0.4,1.1
			c0,0,0,0,0,0c0.9-0.2,1.8-0.4,2.7-0.6c0,0,0,0,0,0c-0.2-0.7-0.1-1.5,0.1-2.1c0-0.1,0.1-0.2,0.1-0.2c0-0.1,0.1-0.2,0.1-0.2
			c0.1-0.1,0.2-0.3,0.3-0.4c0.1-0.1,0.1-0.1,0.2-0.2c0.1-0.1,0.1-0.1,0.2-0.2c0.1-0.1,0.3-0.2,0.4-0.3c0.1,0,0.2-0.1,0.2-0.1
			c0,0,0.1,0,0.1,0c0,0,0.1,0,0.1,0c0.2,0,0.3-0.1,0.5-0.1c0.2,0,0.3,0,0.5,0c0.2,0,0.3,0.1,0.5,0.1c0.3,0.1,0.6,0.3,0.9,0.5
			c0.3,0.2,0.5,0.5,0.7,0.8c0,0,0,0,0,0c0.8-0.5,1.6-1,2.3-1.6c0,0,0,0,0,0c-0.2-0.3-0.4-0.6-0.5-1c-0.1-0.3-0.2-0.7-0.1-1.1
			c0-0.2,0-0.3,0.1-0.5c0-0.2,0.1-0.3,0.1-0.5c0.1-0.2,0.1-0.3,0.2-0.4c0-0.1,0.1-0.1,0.1-0.2c0.1-0.1,0.1-0.1,0.2-0.2
			c0.1-0.1,0.2-0.2,0.4-0.3c0.1,0,0.1-0.1,0.2-0.1c0.1,0,0.1-0.1,0.2-0.1c0.3-0.1,0.6-0.2,1-0.2c0.7,0,1.4,0.2,2,0.6c0,0,0,0,0,0
			c0.6-0.7,1.1-1.5,1.6-2.3c0,0,0,0,0,0c-0.7-0.4-1.1-1-1.4-1.7c-0.1-0.2-0.1-0.3-0.1-0.5c0-0.2,0-0.3,0-0.5c0-0.1,0-0.2,0-0.2
			c0,0,0-0.1,0-0.1c0,0,0-0.1,0-0.1c0-0.2,0.1-0.3,0.1-0.5c0-0.1,0.1-0.2,0.1-0.2c0-0.1,0.1-0.1,0.1-0.2c0.1-0.1,0.2-0.3,0.3-0.4
			c0.1-0.1,0.3-0.2,0.4-0.3c0.1-0.1,0.3-0.2,0.4-0.2c0.6-0.3,1.4-0.4,2.2-0.1c0.3-0.9,0.5-1.8,0.6-2.7c0,0,0,0,0,0
			c-0.4-0.1-0.7-0.2-1.1-0.4c-0.3-0.2-0.6-0.4-0.8-0.7c-0.2-0.3-0.4-0.6-0.5-0.9c-0.1-0.3-0.2-0.6-0.2-1c0-0.3,0.1-0.7,0.2-1
			c0.1-0.3,0.3-0.6,0.6-0.8c0.1-0.1,0.3-0.2,0.4-0.3c0.1-0.1,0.3-0.2,0.5-0.3c0.3-0.2,0.7-0.3,1.1-0.3c0,0,0,0,0,0
			c-0.1-0.9-0.2-1.9-0.4-2.8c0,0,0,0,0,0c-0.8,0.2-1.5,0-2.1-0.3c-0.1-0.1-0.3-0.2-0.4-0.3c-0.1-0.1-0.3-0.2-0.4-0.3
			c-0.2-0.2-0.4-0.5-0.5-0.8c-0.1-0.2-0.1-0.3-0.1-0.5c0-0.2,0-0.3,0-0.5c0-0.3,0.1-0.7,0.3-1c0.1-0.3,0.3-0.6,0.6-0.9
			c0.2-0.3,0.5-0.5,0.9-0.7c0,0,0,0,0,0c-0.4-0.8-0.9-1.6-1.4-2.4c0,0,0,0,0,0c-0.3,0.2-0.7,0.3-1,0.4c-0.4,0.1-0.7,0.1-1.1,0
			c-0.2,0-0.3-0.1-0.5-0.1c-0.2,0-0.3-0.1-0.5-0.2c-0.3-0.1-0.5-0.4-0.8-0.6c-0.1-0.1-0.2-0.3-0.3-0.4c-0.1-0.1-0.1-0.3-0.2-0.5
			c0-0.2-0.1-0.3-0.1-0.5c0-0.2,0-0.3,0-0.5c0-0.7,0.3-1.4,0.8-2c0,0,0,0,0,0c-0.7-0.6-1.4-1.2-2.2-1.8c0,0,0,0,0,0
			c-0.2,0.3-0.5,0.6-0.8,0.8c-0.2,0.1-0.3,0.2-0.5,0.3c-0.1,0-0.2,0.1-0.2,0.1c-0.1,0-0.2,0.1-0.2,0.1c-0.3,0.1-0.7,0.1-1,0.1
			c-0.2,0-0.3,0-0.5-0.1c-0.2,0-0.3-0.1-0.5-0.2c-0.1,0-0.1-0.1-0.2-0.1c-0.1,0-0.1-0.1-0.2-0.1c-0.1-0.1-0.2-0.2-0.3-0.4
			c-0.2-0.3-0.4-0.6-0.5-0.9c-0.1-0.3-0.2-0.7-0.2-1.1c0-0.4,0.1-0.7,0.2-1.1c0,0,0,0,0,0c-0.9-0.4-1.8-0.6-2.6-0.9c0,0,0,0,0,0
			c-0.1,0.4-0.3,0.7-0.5,1c-0.1,0.1-0.2,0.3-0.4,0.4c-0.1,0.1-0.3,0.2-0.4,0.3c-0.1,0.1-0.3,0.2-0.4,0.3c-0.2,0.1-0.3,0.1-0.5,0.2
			c-0.2,0-0.3,0.1-0.5,0.1c-0.1,0-0.2,0-0.2,0c0,0-0.1,0-0.1,0c0,0-0.1,0-0.1,0c-0.2,0-0.3-0.1-0.5-0.1c-0.1,0-0.2-0.1-0.2-0.1
			c0,0-0.1,0-0.1-0.1c0,0-0.1,0-0.1-0.1c-0.3-0.2-0.5-0.4-0.8-0.7c-0.1-0.1-0.2-0.3-0.3-0.4c-0.1-0.2-0.2-0.3-0.2-0.5
			c-0.1-0.3-0.2-0.7-0.2-1.1c0,0,0,0,0,0c-0.9,0-1.9,0-2.8,0.1c0,0,0,0,0,0c0.1,0.8-0.1,1.5-0.5,2.1c-0.2,0.3-0.4,0.5-0.7,0.7
			c-0.1,0-0.1,0.1-0.2,0.1c-0.1,0-0.1,0.1-0.2,0.1c-0.1,0.1-0.3,0.1-0.5,0.2c-0.7,0.2-1.3,0-1.9-0.3c-0.6-0.3-1.1-0.9-1.4-1.6
			c0,0,0,0,0,0c-0.9,0.3-1.7,0.7-2.6,1.1c0,0,0,0,0,0c0.2,0.3,0.3,0.7,0.3,1.1c0,0.4,0,0.7-0.1,1.1c0,0.2-0.1,0.3-0.2,0.5
			c-0.1,0.2-0.1,0.3-0.2,0.4c-0.1,0.1-0.2,0.3-0.3,0.4c-0.1,0.1-0.2,0.2-0.4,0.3c-0.1,0.1-0.3,0.2-0.4,0.2c-0.2,0.1-0.3,0.1-0.5,0.1
			c-0.3,0.1-0.7,0.1-1,0c-0.7-0.1-1.4-0.4-1.9-1h0c-0.7,0.6-1.3,1.3-2,2c0,0,0,0,0,0c0.3,0.3,0.5,0.6,0.7,0.9c0.2,0.3,0.3,0.7,0.3,1
			c0.1,0.3,0.1,0.7,0,1c-0.1,0.3-0.2,0.6-0.4,0.9c-0.2,0.3-0.4,0.5-0.7,0.7c-0.3,0.2-0.6,0.3-0.9,0.4c-0.2,0-0.3,0.1-0.5,0.1
			c-0.2,0-0.4,0-0.5,0c-0.4,0-0.7-0.1-1.1-0.3c0,0,0,0,0,0c-0.1,0.2-0.2,0.4-0.3,0.6c-0.3,0.6-0.6,1.3-0.8,1.9c0,0,0,0,0,0
			c0.4,0.1,0.7,0.3,1,0.6c0.3,0.2,0.5,0.5,0.7,0.8c0.2,0.3,0.3,0.6,0.3,0.9c0,0.2,0,0.3,0,0.5c0,0.1,0,0.2,0,0.2c0,0.1,0,0.2,0,0.2
			c0,0.2-0.1,0.3-0.2,0.5c-2.9,0.8-5.4,2.4-7.4,4.5C340.8,20.5,321.5,2,297.9,2c-23,0-41.8,17.5-44,39.9c-5.5-8-14.8-13.3-25.3-13.3
			c-16.9,0-30.7,13.7-30.7,30.7c0,2.9,0.4,5.7,1.2,8.4h-10.6c-12.6,0-22.8,10.2-22.8,22.8h26.1v3.3c1.6,6.3,7.4,11,14.2,11
			c6.8,0,12.6-4.7,14.2-11c1.6,6.3,7.4,11,14.2,11c6.8,0,12.6-4.7,14.2-11c1.6,6.3,7.4,11,14.2,11c6.8,0,12.6-4.7,14.2-11
			c1.6,6.3,7.4,11,14.2,11c6.8,0,12.6-4.7,14.2-11c1.6,6.3,7.4,11,14.2,11c6.8,0,12.6-4.7,14.2-11c1.6,6.3,7.4,11,14.2,11
			c6.8,0,12.6-4.7,14.2-11c1.6,6.3,7.4,11,14.2,11c8,0,14.5-6.4,14.7-14.3L404.3,90.4C404.3,90.5,404.3,90.4,404.3,90.4z
			 M366.1,43.3c0-0.1,0-0.3,0-0.4c0-0.3,0.1-0.6,0.2-0.8c0.1-0.3,0.3-0.5,0.5-0.7c0.1-0.1,0.2-0.2,0.3-0.3c0.5-0.4,1-0.6,1.6-0.6
			c0.1,0,0.3,0,0.4,0c0.3,0,0.6,0.1,0.8,0.2c0.3,0.1,0.5,0.3,0.7,0.5c0.1,0.1,0.2,0.2,0.3,0.3c0.4,0.5,0.6,1,0.6,1.6
			c0,0.1,0,0.3,0,0.4c0,0.3-0.1,0.6-0.2,0.8c-0.1,0.3-0.3,0.5-0.5,0.7c-0.1,0.1-0.2,0.2-0.3,0.3c-0.5,0.4-1,0.6-1.6,0.6
			c-0.1,0-0.3,0-0.4,0c-0.1,0-0.1,0-0.2,0C367.7,45,366.9,44.1,366.1,43.3C366.1,43.3,366.1,43.3,366.1,43.3z M370.4,60.6
			c0.5-1.6,0.8-3.3,0.8-5.1c0-2.4-0.5-4.7-1.4-6.7c0,0,0.1,0,0.1,0l4,11.2C372.8,60.3,371.6,60.5,370.4,60.6z M375.5,59.4l-4-11.2
			c0.8-0.4,1.4-1,1.9-1.7l10.7,5.1C382.3,55.2,379.1,57.9,375.5,59.4z M385.6,38.2c1.1,3.7,1,7.9-0.6,11.7l-10.7-5.1
			c0.3-0.9,0.3-1.8,0.1-2.6L385.6,38.2z M385,36.6l-11.2,4c-0.4-0.8-1-1.4-1.7-1.9l5.1-10.7C380.8,29.9,383.5,33,385,36.6z
			 M375.6,27.1l-5.1,10.7c-0.9-0.3-1.8-0.3-2.6-0.1l-4-11.2C367.6,25.4,371.7,25.5,375.6,27.1z M362.2,27.1l4,11.2
			c-0.8,0.4-1.4,1-1.9,1.7L353.5,35C355.5,31.3,358.6,28.6,362.2,27.1z M352.8,36.6l4.9,2.3c-1.1-0.2-2.2-0.3-3.4-0.3
			c-0.8,0-1.5,0-2.2,0.1C352.3,38,352.5,37.3,352.8,36.6z M270.9,43.9c0,0-0.6-0.3-1.3-0.6c-0.6-0.3-1.3-0.7-1.3-0.7
			c-0.2-0.1-0.3-0.3-0.3-0.4c0-0.1,0.1-0.3,0.3-0.4c0,0,0.7-0.3,1.4-0.5c0.2-0.1,0.3-0.1,0.5-0.2c0.2-0.1,0.3-0.1,0.4-0.1
			c0.3-0.1,0.4-0.1,0.4-0.1c0.2-0.1,0.5-0.1,0.8,0c-0.3,0-0.5-0.1-0.7-0.2c0,0-0.6-0.4-1.2-0.8c-0.3-0.2-0.6-0.4-0.8-0.6
			c-0.2-0.2-0.4-0.3-0.4-0.3c-0.4-0.3-0.3-0.6,0.1-0.7c0,0,0.2,0,0.4-0.1c0.3-0.1,0.6-0.2,1-0.2c0.7-0.2,1.4-0.3,1.4-0.3
			c0.2,0,0.5,0,0.8,0c-0.3-0.1-0.5-0.2-0.7-0.3c0,0-0.1-0.1-0.4-0.3c-0.2-0.2-0.5-0.4-0.8-0.6c-0.5-0.5-1.1-1-1.1-1
			c-0.2-0.2-0.2-0.3-0.2-0.5c0-0.1,0.2-0.2,0.4-0.3c0,0,0.7-0.1,1.4-0.2c0.4,0,0.7-0.1,1-0.1c0.3,0,0.5,0,0.5,0c0.2,0,0.5,0,0.8,0.1
			c-0.3-0.1-0.5-0.2-0.7-0.4c0,0-0.5-0.5-1-1c-0.2-0.3-0.5-0.5-0.7-0.7c-0.2-0.2-0.3-0.3-0.3-0.3c-0.3-0.4-0.2-0.7,0.3-0.7
			c0,0,0.2,0,0.5,0c0.1,0,0.3,0,0.5,0c0.2,0,0.4,0,0.5,0c0.7,0,1.4,0.1,1.4,0.1c0.2,0,0.5,0.1,0.7,0.2c-0.2-0.1-0.5-0.3-0.6-0.5
			c0,0-0.1-0.1-0.3-0.4c-0.2-0.2-0.4-0.5-0.6-0.8c-0.4-0.6-0.8-1.2-0.8-1.2c-0.1-0.2-0.2-0.4-0.1-0.5c0.1-0.1,0.2-0.2,0.5-0.2
			c0,0,0.7,0.1,1.4,0.2c0.4,0.1,0.7,0.1,1,0.2c0.3,0,0.4,0.1,0.4,0.1c0.2,0,0.5,0.2,0.7,0.3c-0.2-0.2-0.4-0.4-0.5-0.6
			c0,0-0.4-0.6-0.7-1.3c-0.2-0.3-0.4-0.6-0.5-0.9c-0.1-0.2-0.2-0.4-0.2-0.4c-0.2-0.4,0-0.7,0.5-0.6c0,0,0.2,0,0.4,0.1
			c0.1,0,0.3,0.1,0.4,0.1c0.2,0,0.3,0.1,0.5,0.1c0.7,0.2,1.4,0.4,1.4,0.4c0.2,0.1,0.5,0.2,0.7,0.4c-0.2-0.2-0.4-0.4-0.5-0.6
			c0,0-0.1-0.2-0.2-0.4c-0.1-0.2-0.2-0.6-0.4-0.9c-0.3-0.7-0.5-1.4-0.5-1.4c-0.1-0.2-0.1-0.4,0-0.5c0.1-0.1,0.3-0.1,0.5,0
			c0,0,0.7,0.2,1.4,0.5c0.3,0.1,0.7,0.3,0.9,0.4c0.2,0.1,0.4,0.2,0.4,0.2c0.2,0.1,0.4,0.3,0.6,0.5c-0.2-0.2-0.3-0.4-0.4-0.7
			c0,0-0.2-0.7-0.4-1.4c0-0.2-0.1-0.4-0.1-0.5c0-0.2-0.1-0.3-0.1-0.4c-0.1-0.3-0.1-0.4-0.1-0.4c-0.1-0.5,0.2-0.7,0.6-0.5
			c0,0,0.2,0.1,0.4,0.2c0.2,0.1,0.6,0.3,0.9,0.5c0.6,0.4,1.3,0.7,1.3,0.7c0.2,0.1,0.4,0.3,0.6,0.5c-0.2-0.2-0.3-0.5-0.3-0.7
			c0,0,0-0.2-0.1-0.4c0-0.3-0.1-0.6-0.2-1c-0.1-0.7-0.2-1.4-0.2-1.4c0-0.2,0-0.4,0.2-0.5c0.1-0.1,0.3,0,0.5,0.1c0,0,0.6,0.4,1.2,0.8
			c0.3,0.2,0.6,0.4,0.8,0.6c0.2,0.2,0.4,0.3,0.4,0.3c0.2,0.1,0.4,0.4,0.5,0.6c-0.1-0.2-0.2-0.5-0.2-0.7c0,0,0-0.7-0.1-1.4
			c0-0.2,0-0.4,0-0.5c0-0.2,0-0.3,0-0.5c0-0.3,0-0.5,0-0.5c0-0.5,0.3-0.6,0.7-0.3c0,0,0.1,0.1,0.3,0.3c0.2,0.2,0.5,0.4,0.7,0.7
			c0.5,0.5,1,1,1,1c0.2,0.2,0.3,0.4,0.4,0.7c-0.1-0.3-0.2-0.5-0.1-0.8c0,0,0-0.2,0-0.5c0-0.3,0.1-0.6,0.1-1c0.1-0.7,0.2-1.4,0.2-1.4
			c0-0.2,0.1-0.4,0.3-0.4c0.1,0,0.3,0,0.5,0.2c0,0,0.5,0.5,1,1.1c0.2,0.3,0.5,0.6,0.6,0.8c0.2,0.2,0.3,0.4,0.3,0.4
			c0.1,0.2,0.3,0.4,0.3,0.7c-0.1-0.3-0.1-0.6,0-0.8c0,0,0.1-0.7,0.3-1.4c0.1-0.4,0.2-0.7,0.2-1c0.1-0.3,0.1-0.4,0.1-0.4
			c0.1-0.5,0.5-0.5,0.7-0.1c0,0,0.1,0.1,0.3,0.4c0.2,0.2,0.4,0.5,0.6,0.8c0.4,0.6,0.8,1.2,0.8,1.2c0.1,0.2,0.2,0.5,0.2,0.7
			c0-0.3,0-0.6,0-0.8c0,0,0.1-0.2,0.1-0.4c0-0.1,0.1-0.3,0.1-0.4c0.1-0.2,0.1-0.3,0.2-0.5c0.2-0.7,0.5-1.4,0.5-1.4
			c0.1-0.2,0.2-0.3,0.4-0.3c0.1,0,0.3,0.1,0.4,0.3c0,0,0.4,0.6,0.7,1.3c0.3,0.6,0.6,1.3,0.6,1.3c0.1,0.2,0.1,0.5,0.1,0.8
			c0-0.3,0-0.6,0.1-0.8c0,0,0.3-0.6,0.6-1.3c0.3-0.6,0.7-1.3,0.7-1.3c0.1-0.2,0.3-0.3,0.4-0.3c0.1,0,0.3,0.1,0.4,0.3
			c0,0,0.3,0.7,0.5,1.4c0.1,0.2,0.1,0.3,0.2,0.5c0.1,0.2,0.1,0.3,0.1,0.4c0.1,0.3,0.1,0.4,0.1,0.4c0.1,0.2,0.1,0.5,0,0.8
			c0-0.3,0.1-0.5,0.2-0.7c0,0,0.4-0.6,0.8-1.2c0.2-0.3,0.4-0.6,0.6-0.8c0.2-0.2,0.3-0.4,0.3-0.4c0.3-0.4,0.6-0.3,0.7,0.1
			c0,0,0,0.2,0.1,0.4c0.1,0.3,0.2,0.6,0.2,1c0.2,0.7,0.3,1.4,0.3,1.4c0,0.2,0,0.5,0,0.8c0.1-0.3,0.2-0.5,0.3-0.7
			c0,0,0.1-0.1,0.3-0.4c0.2-0.2,0.4-0.5,0.6-0.8c0.5-0.5,1-1.1,1-1.1c0.2-0.2,0.3-0.2,0.5-0.2c0.1,0,0.2,0.2,0.3,0.4
			c0,0,0.1,0.7,0.2,1.4c0,0.4,0.1,0.7,0.1,1c0,0.3,0,0.5,0,0.5c0,0.2,0,0.5-0.1,0.8c0.1-0.3,0.2-0.5,0.4-0.7c0,0,0.5-0.5,1-1
			c0.3-0.2,0.5-0.5,0.7-0.7c0.2-0.2,0.3-0.3,0.3-0.3c0.4-0.3,0.7-0.2,0.7,0.3c0,0,0,0.2,0,0.5c0,0.1,0,0.3,0,0.5c0,0.2,0,0.4,0,0.5
			c0,0.7-0.1,1.4-0.1,1.4c0,0.2-0.1,0.5-0.2,0.7c0.1-0.2,0.3-0.5,0.5-0.6c0,0,0.1-0.1,0.4-0.3c0.2-0.2,0.5-0.4,0.8-0.6
			c0.6-0.4,1.2-0.8,1.2-0.8c0.2-0.1,0.4-0.2,0.5-0.1c0.1,0.1,0.2,0.2,0.2,0.5c0,0-0.1,0.7-0.2,1.4c-0.1,0.4-0.1,0.7-0.2,1
			c0,0.3-0.1,0.4-0.1,0.4c0,0.2-0.2,0.5-0.3,0.7c0.2-0.2,0.4-0.4,0.6-0.5c0,0,0.6-0.4,1.3-0.7c0.3-0.2,0.6-0.4,0.9-0.5
			c0.2-0.1,0.4-0.2,0.4-0.2c0.4-0.2,0.7,0,0.6,0.5c0,0,0,0.2-0.1,0.4c0,0.1-0.1,0.3-0.1,0.4c0,0.2-0.1,0.3-0.1,0.5
			c-0.2,0.7-0.4,1.4-0.4,1.4c-0.1,0.2-0.2,0.5-0.4,0.7c0.2-0.2,0.4-0.4,0.6-0.5c0,0,0.2-0.1,0.4-0.2c0.2-0.1,0.6-0.2,0.9-0.4
			c0.7-0.3,1.4-0.5,1.4-0.5c0.2-0.1,0.4-0.1,0.5,0c0.1,0.1,0.1,0.3,0,0.5c0,0-0.2,0.7-0.5,1.4c-0.1,0.3-0.3,0.7-0.4,0.9
			c-0.1,0.2-0.2,0.4-0.2,0.4c-0.1,0.2-0.3,0.4-0.5,0.6c0.2-0.2,0.4-0.3,0.7-0.4c0,0,0.7-0.2,1.4-0.4c0.2,0,0.4-0.1,0.5-0.1
			c0.2,0,0.3-0.1,0.4-0.1c0.3-0.1,0.4-0.1,0.4-0.1c0.5-0.1,0.7,0.2,0.5,0.6c0,0-0.1,0.2-0.2,0.4c-0.1,0.2-0.3,0.6-0.5,0.9
			c-0.4,0.6-0.7,1.2-0.7,1.3c-0.1,0.2-0.3,0.4-0.5,0.6c0.2-0.2,0.5-0.3,0.7-0.3c0,0,0.2,0,0.4-0.1c0.3,0,0.6-0.1,1-0.2
			c0.7-0.1,1.4-0.2,1.4-0.2c0.2,0,0.4,0,0.5,0.2c0.1,0.1,0,0.3-0.1,0.5c0,0-0.4,0.6-0.8,1.2c-0.2,0.3-0.4,0.6-0.6,0.8
			c-0.2,0.2-0.3,0.4-0.3,0.4c-0.1,0.2-0.4,0.4-0.6,0.5c0.2-0.1,0.5-0.2,0.7-0.2c0,0,0.7,0,1.4-0.1c0.2,0,0.4,0,0.5,0
			c0.2,0,0.3,0,0.5,0c0.3,0,0.5,0,0.5,0c0.5,0,0.6,0.3,0.3,0.7c0,0-0.1,0.1-0.3,0.3c-0.2,0.2-0.4,0.5-0.7,0.7c-0.5,0.5-1,1-1,1
			c-0.2,0.2-0.4,0.3-0.7,0.4c0.3-0.1,0.5-0.2,0.8-0.1c0,0,0.2,0,0.5,0c0.3,0,0.6,0.1,1,0.1c0.7,0.1,1.4,0.2,1.4,0.2
			c0.2,0,0.4,0.1,0.4,0.3c0,0.1,0,0.3-0.2,0.5c0,0-0.5,0.5-1.1,1c-0.3,0.2-0.6,0.5-0.8,0.6c-0.2,0.2-0.4,0.3-0.4,0.3
			c-0.2,0.1-0.4,0.3-0.7,0.3c0.3-0.1,0.6-0.1,0.8,0c0,0,0.7,0.1,1.4,0.3c0.4,0.1,0.7,0.2,1,0.2c0.3,0.1,0.4,0.1,0.4,0.1
			c0.5,0.1,0.5,0.5,0.1,0.7c0,0-0.1,0.1-0.4,0.3c-0.2,0.2-0.5,0.4-0.8,0.6c-0.6,0.4-1.2,0.8-1.2,0.8c-0.2,0.1-0.5,0.2-0.7,0.2
			c0.3,0,0.6,0,0.8,0c0,0,0.2,0.1,0.4,0.1c0.1,0,0.3,0.1,0.4,0.1c0.2,0.1,0.3,0.1,0.5,0.2c0.7,0.2,1.4,0.5,1.4,0.5
			c0.2,0.1,0.3,0.2,0.3,0.4c0,0.1-0.1,0.3-0.3,0.4c0,0-0.6,0.4-1.3,0.7c-0.6,0.3-1.3,0.6-1.3,0.6c-0.2,0.1-0.5,0.1-0.8,0.1
			c0.3,0,0.6,0,0.8,0.1c0,0,0.6,0.3,1.3,0.6c0.6,0.3,1.3,0.7,1.3,0.7c0.2,0.1,0.3,0.3,0.3,0.4c0,0.1-0.1,0.3-0.3,0.4
			c0,0-0.7,0.3-1.4,0.5c-0.2,0.1-0.3,0.1-0.5,0.2c-0.2,0.1-0.3,0.1-0.4,0.1c-0.3,0.1-0.4,0.1-0.4,0.1c-0.2,0.1-0.5,0.1-0.8,0
			c0.3,0,0.5,0.1,0.7,0.2c0,0,0.6,0.4,1.2,0.8c0.3,0.2,0.6,0.4,0.8,0.6c0.2,0.2,0.4,0.3,0.4,0.3c0.4,0.3,0.3,0.6-0.1,0.7
			c0,0-0.2,0-0.4,0.1c-0.3,0.1-0.6,0.2-1,0.2c-0.7,0.2-1.4,0.3-1.4,0.3c-0.2,0-0.5,0-0.8,0c0.3,0.1,0.5,0.2,0.7,0.3
			c0,0,0.1,0.1,0.4,0.3c0.2,0.2,0.5,0.4,0.8,0.6c0.5,0.5,1.1,1,1.1,1c0.2,0.2,0.2,0.3,0.2,0.5c0,0.1-0.2,0.2-0.4,0.3
			c0,0-0.7,0.1-1.4,0.2c-0.4,0-0.7,0.1-1,0.1c-0.3,0-0.5,0-0.5,0c-0.2,0-0.5,0-0.8-0.1c0.3,0.1,0.5,0.2,0.7,0.4c0,0,0.5,0.5,1,1
			c0.2,0.3,0.5,0.5,0.7,0.7c0.2,0.2,0.3,0.3,0.3,0.3c0.3,0.4,0.2,0.7-0.3,0.7c0,0-0.2,0-0.5,0c-0.1,0-0.3,0-0.5,0
			c-0.2,0-0.4,0-0.5,0c-0.7,0-1.4-0.1-1.4-0.1c-0.2,0-0.5-0.1-0.7-0.2c0.2,0.1,0.5,0.3,0.6,0.5c0,0,0.1,0.1,0.3,0.4
			c0.2,0.2,0.4,0.5,0.6,0.8c0.4,0.6,0.8,1.2,0.8,1.2c0.1,0.2,0.2,0.4,0.1,0.5c-0.1,0.1-0.2,0.2-0.5,0.2c0,0-0.7-0.1-1.4-0.2
			c-0.4-0.1-0.7-0.1-1-0.2c-0.3,0-0.4-0.1-0.4-0.1c-0.2,0-0.5-0.2-0.7-0.3c0.2,0.2,0.4,0.4,0.5,0.6c0,0,0.4,0.6,0.7,1.3
			c0.2,0.3,0.4,0.6,0.5,0.9c0.1,0.2,0.2,0.4,0.2,0.4c0.2,0.4,0,0.7-0.5,0.6c0,0-0.2,0-0.4-0.1c-0.1,0-0.3-0.1-0.4-0.1
			c-0.2,0-0.3-0.1-0.5-0.1c-0.7-0.2-1.4-0.4-1.4-0.4c-0.2-0.1-0.5-0.2-0.7-0.4c0.2,0.2,0.4,0.4,0.5,0.6c0,0,0.1,0.2,0.2,0.4
			c0.1,0.2,0.2,0.6,0.4,0.9c0.3,0.7,0.5,1.4,0.5,1.4c0.1,0.2,0.1,0.4,0,0.5c-0.1,0.1-0.3,0.1-0.5,0c0,0-0.7-0.2-1.4-0.5
			c-0.3-0.1-0.7-0.3-0.9-0.4c-0.2-0.1-0.4-0.2-0.4-0.2c-0.2-0.1-0.4-0.3-0.6-0.5c0.2,0.2,0.3,0.4,0.4,0.7c0,0,0.2,0.7,0.4,1.4
			c0,0.2,0.1,0.4,0.1,0.5c0,0.2,0.1,0.3,0.1,0.5c0.1,0.3,0.1,0.4,0.1,0.4c0.1,0.5-0.2,0.7-0.6,0.5c0,0-0.2-0.1-0.4-0.2
			c-0.2-0.1-0.6-0.3-0.9-0.5c-0.6-0.4-1.3-0.7-1.3-0.7c-0.2-0.1-0.4-0.3-0.6-0.5c0.2,0.2,0.3,0.5,0.3,0.7c0,0,0,0.2,0.1,0.4
			c0,0.3,0.1,0.6,0.2,1c0.1,0.7,0.2,1.4,0.2,1.4c0,0.2,0,0.4-0.2,0.5c-0.1,0.1-0.3,0-0.5-0.1c0,0-0.6-0.4-1.2-0.8
			c-0.3-0.2-0.6-0.4-0.8-0.6c-0.2-0.2-0.4-0.3-0.4-0.3c-0.2-0.1-0.4-0.4-0.5-0.6c0.1,0.2,0.2,0.5,0.2,0.7c0,0,0,0.7,0.1,1.4
			c0,0.2,0,0.4,0,0.5c0,0.2,0,0.3,0,0.5c0,0.3,0,0.5,0,0.5c0,0.5-0.3,0.6-0.7,0.3c0,0-0.1-0.1-0.3-0.3c-0.2-0.2-0.5-0.4-0.7-0.7
			c-0.5-0.5-1-1-1-1c-0.2-0.2-0.3-0.4-0.4-0.7c0.1,0.3,0.2,0.5,0.1,0.8c0,0,0,0.2,0,0.5c0,0.3-0.1,0.6-0.1,1
			c-0.1,0.7-0.2,1.4-0.2,1.4c0,0.2-0.1,0.4-0.3,0.4c-0.1,0-0.3,0-0.5-0.2c0,0-0.5-0.5-1-1.1c-0.2-0.3-0.5-0.6-0.6-0.8
			c-0.2-0.2-0.3-0.4-0.3-0.4c-0.1-0.2-0.3-0.4-0.3-0.7c0.1,0.3,0.1,0.6,0,0.8c0,0-0.1,0.7-0.3,1.4c-0.1,0.4-0.2,0.7-0.2,1
			c-0.1,0.3-0.1,0.4-0.1,0.4c-0.1,0.5-0.5,0.5-0.7,0.1c0,0-0.1-0.1-0.3-0.4c-0.2-0.2-0.4-0.5-0.6-0.8c-0.4-0.6-0.8-1.2-0.8-1.2
			c-0.1-0.2-0.2-0.5-0.2-0.7c0,0.3,0,0.6,0,0.8c0,0-0.1,0.2-0.1,0.4c0,0.1-0.1,0.3-0.1,0.4c-0.1,0.2-0.1,0.3-0.2,0.5
			c-0.2,0.7-0.5,1.4-0.5,1.4c-0.1,0.2-0.2,0.3-0.4,0.3c-0.1,0-0.3-0.1-0.4-0.3c0,0-0.4-0.6-0.7-1.3c-0.3-0.6-0.6-1.3-0.6-1.3
			c-0.1-0.2-0.1-0.5-0.1-0.8c0,0.3,0,0.6-0.1,0.8c0,0-0.3,0.6-0.6,1.3c-0.3,0.6-0.7,1.3-0.7,1.3c-0.1,0.2-0.3,0.3-0.4,0.3
			c-0.1,0-0.3-0.1-0.4-0.3c0,0-0.3-0.7-0.5-1.4c-0.1-0.2-0.1-0.3-0.2-0.5c-0.1-0.2-0.1-0.3-0.1-0.4c-0.1-0.3-0.1-0.4-0.1-0.4
			c-0.1-0.2-0.1-0.5,0-0.8c0,0.3-0.1,0.5-0.2,0.7c0,0-0.4,0.6-0.8,1.2c-0.2,0.3-0.4,0.6-0.6,0.8c-0.2,0.2-0.3,0.4-0.3,0.4
			c-0.3,0.4-0.6,0.3-0.7-0.1c0,0,0-0.2-0.1-0.4c-0.1-0.3-0.2-0.6-0.2-1c-0.2-0.7-0.3-1.4-0.3-1.4c0-0.2,0-0.5,0-0.8
			c-0.1,0.3-0.2,0.5-0.3,0.7c0,0-0.1,0.1-0.3,0.4c-0.2,0.2-0.4,0.5-0.6,0.8c-0.5,0.5-1,1.1-1,1.1c-0.2,0.2-0.3,0.2-0.5,0.2
			c-0.1,0-0.2-0.2-0.3-0.4c0,0-0.1-0.7-0.2-1.4c0-0.4-0.1-0.7-0.1-1c0-0.3,0-0.5,0-0.5c0-0.2,0-0.5,0.1-0.8
			c-0.1,0.3-0.2,0.5-0.4,0.7c0,0-0.5,0.5-1,1c-0.3,0.2-0.5,0.5-0.7,0.7c-0.2,0.2-0.3,0.3-0.3,0.3c-0.4,0.3-0.7,0.2-0.7-0.3
			c0,0,0-0.2,0-0.5c0-0.1,0-0.3,0-0.5c0-0.2,0-0.4,0-0.5c0-0.7,0.1-1.4,0.1-1.4c0-0.2,0.1-0.5,0.2-0.7c-0.1,0.2-0.3,0.5-0.5,0.6
			c0,0-0.1,0.1-0.4,0.3c-0.2,0.2-0.5,0.4-0.8,0.6c-0.6,0.4-1.2,0.8-1.2,0.8c-0.2,0.1-0.4,0.2-0.5,0.1c-0.1-0.1-0.2-0.2-0.2-0.5
			c0,0,0.1-0.7,0.2-1.4c0.1-0.4,0.1-0.7,0.2-1c0-0.3,0.1-0.4,0.1-0.4c0-0.2,0.2-0.5,0.3-0.7c-0.2,0.2-0.4,0.4-0.6,0.5
			c0,0-0.6,0.4-1.2,0.7c-0.3,0.2-0.6,0.4-0.9,0.5c-0.2,0.1-0.4,0.2-0.4,0.2c-0.4,0.2-0.7,0-0.6-0.5c0,0,0-0.2,0.1-0.4
			c0-0.1,0.1-0.3,0.1-0.4c0-0.2,0.1-0.3,0.1-0.5c0.2-0.7,0.4-1.4,0.4-1.4c0.1-0.2,0.2-0.5,0.4-0.7c-0.2,0.2-0.4,0.4-0.6,0.5
			c0,0-0.2,0.1-0.4,0.2c-0.2,0.1-0.6,0.2-0.9,0.4c-0.7,0.3-1.4,0.5-1.4,0.5c-0.2,0.1-0.4,0.1-0.5,0c-0.1-0.1-0.1-0.3,0-0.5
			c0,0,0.2-0.7,0.5-1.4c0.1-0.3,0.3-0.7,0.4-0.9c0.1-0.2,0.2-0.4,0.2-0.4c0.1-0.2,0.3-0.4,0.5-0.6c-0.2,0.2-0.4,0.3-0.7,0.4
			c0,0-0.7,0.2-1.4,0.4c-0.2,0-0.4,0.1-0.5,0.1c-0.2,0-0.3,0.1-0.4,0.1c-0.3,0.1-0.4,0.1-0.4,0.1c-0.5,0.1-0.7-0.2-0.5-0.6
			c0,0,0.1-0.2,0.2-0.4c0.1-0.2,0.3-0.6,0.5-0.9c0.4-0.6,0.7-1.3,0.7-1.3c0.1-0.2,0.3-0.4,0.5-0.6c-0.2,0.2-0.5,0.3-0.7,0.3
			c0,0-0.2,0-0.4,0.1c-0.3,0-0.6,0.1-1,0.2c-0.7,0.1-1.4,0.2-1.4,0.2c-0.2,0-0.4,0-0.5-0.2c-0.1-0.1,0-0.3,0.1-0.5
			c0,0,0.4-0.6,0.8-1.2c0.2-0.3,0.4-0.6,0.6-0.8c0.2-0.2,0.3-0.4,0.3-0.4c0.1-0.2,0.4-0.4,0.6-0.5c-0.2,0.1-0.5,0.2-0.7,0.2
			c0,0-0.7,0-1.4,0.1c-0.2,0-0.4,0-0.5,0c-0.2,0-0.3,0-0.5,0c-0.3,0-0.5,0-0.5,0c-0.5,0-0.6-0.3-0.3-0.7c0,0,0.1-0.1,0.3-0.3
			c0.2-0.2,0.4-0.5,0.7-0.7c0.5-0.5,1-1,1-1c0.2-0.2,0.4-0.3,0.7-0.4c-0.3,0.1-0.5,0.2-0.8,0.1c0,0-0.2,0-0.5,0
			c-0.3,0-0.6-0.1-1-0.1c-0.7-0.1-1.4-0.2-1.4-0.2c-0.2,0-0.4-0.1-0.4-0.3c0-0.1,0-0.3,0.2-0.5c0,0,0.5-0.5,1.1-1
			c0.3-0.2,0.6-0.5,0.8-0.6c0.2-0.2,0.4-0.3,0.4-0.3c0.2-0.1,0.4-0.3,0.7-0.3c-0.3,0.1-0.6,0.1-0.8,0c0,0-0.7-0.1-1.4-0.3
			c-0.4-0.1-0.7-0.2-1-0.2c-0.3-0.1-0.4-0.1-0.4-0.1c-0.5-0.1-0.5-0.5-0.1-0.7c0,0,0.1-0.1,0.4-0.3c0.2-0.2,0.5-0.4,0.8-0.6
			c0.6-0.4,1.2-0.8,1.2-0.8c0.2-0.1,0.5-0.2,0.7-0.2c-0.3,0-0.6,0-0.8,0c0,0-0.2-0.1-0.4-0.1c-0.1,0-0.3-0.1-0.4-0.1
			c-0.2-0.1-0.3-0.1-0.5-0.2c-0.7-0.2-1.4-0.5-1.4-0.5c-0.2-0.1-0.3-0.2-0.3-0.4c0-0.1,0.1-0.3,0.3-0.4c0,0,0.6-0.4,1.3-0.7
			c0.6-0.3,1.3-0.6,1.3-0.6c0.2-0.1,0.5-0.1,0.8-0.1C271.4,44.1,271.2,44,270.9,43.9z M205.3,57.9C205.3,57.9,205.3,57.9,205.3,57.9
			c0-0.1,0-0.1,0-0.2c0,0,0-0.1,0-0.1c0-0.1,0-0.1,0-0.1c0-0.2,0.2-0.4,0.4-0.4l1,0.1c0-0.5,0.1-1,0.2-1.5l-1-0.1
			c-0.2,0-0.4-0.2-0.3-0.5c0,0,0-0.2,0.1-0.4c0-0.1,0-0.1,0-0.1c0,0,0-0.1,0-0.1c0-0.1,0-0.1,0-0.1c0-0.2,0.3-0.4,0.5-0.3l1,0.2
			c0.1-0.5,0.2-1,0.4-1.5l-1-0.3c-0.2-0.1-0.3-0.3-0.2-0.5c0,0,0.1-0.2,0.1-0.4c0-0.1,0.1-0.2,0.1-0.3c0,0,0-0.1,0-0.1c0,0,0,0,0,0
			c0.1-0.2,0.3-0.3,0.5-0.3l1,0.4c0.2-0.5,0.4-1,0.6-1.4l-0.9-0.4c-0.1,0-0.2-0.1-0.2-0.2c0-0.1,0-0.2,0-0.3l0.4-0.7
			c0.1-0.2,0.4-0.3,0.5-0.2l0.9,0.5c0.2-0.5,0.5-0.9,0.8-1.3l-0.9-0.6c-0.2-0.1-0.2-0.4-0.1-0.6l0.5-0.7c0,0,0,0,0.1-0.1
			c0,0,0,0,0.1,0c0,0,0.1,0,0.1-0.1c0.1,0,0.2,0,0.3,0.1l0.8,0.6c0.3-0.4,0.6-0.8,1-1.2l-0.8-0.7c-0.1-0.1-0.1-0.2-0.1-0.3
			c0-0.1,0-0.1,0-0.2c0,0,0-0.1,0.1-0.1l0.6-0.6c0,0,0,0,0.1-0.1c0,0,0,0,0.1,0c0,0,0.1,0,0.2,0c0.1,0,0.2,0,0.3,0.1l0.7,0.7
			c0.4-0.4,0.7-0.7,1.1-1l-0.7-0.8c-0.1-0.2-0.1-0.4,0.1-0.6l0.6-0.5c0.2-0.1,0.4-0.1,0.6,0.1l0.6,0.8c0.4-0.3,0.8-0.6,1.3-0.9
			l-0.5-0.9c-0.1-0.1-0.1-0.2,0-0.3c0-0.1,0.1-0.2,0.2-0.2l0.7-0.4c0.2-0.1,0.4,0,0.5,0.2l0.5,0.9c0.5-0.2,0.9-0.5,1.4-0.7l-0.4-0.9
			c0-0.1,0-0.2,0-0.3c0-0.1,0.1-0.2,0.2-0.2c0,0,0.2-0.1,0.4-0.2c0.1,0,0.2-0.1,0.3-0.1c0.1,0,0.1,0,0.1,0c0.2-0.1,0.4,0,0.5,0.2
			l0.3,1c0.5-0.2,1-0.3,1.5-0.5l-0.3-1c0-0.1,0-0.2,0-0.3c0.1-0.1,0.1-0.2,0.3-0.2c0,0,0.2,0,0.4-0.1c0.1,0,0.2,0,0.3-0.1
			c0,0,0.1,0,0.1,0c0,0,0,0,0,0c0.2,0,0.4,0.1,0.5,0.3l0.2,1c0.5-0.1,1-0.2,1.5-0.2l-0.1-1c0-0.2,0.1-0.4,0.4-0.4c0,0,0.2,0,0.4,0
			c0.1,0,0.2,0,0.3,0c0,0,0.1,0,0.1,0c0,0,0,0,0,0c0.2,0,0.4,0.2,0.4,0.4l0.1,1c0.5,0,1,0,1.5,0l0-1c0-0.1,0.1-0.2,0.1-0.3
			c0.1-0.1,0.2-0.1,0.3-0.1c0,0,0.2,0,0.4,0c0.1,0,0.2,0,0.3,0c0,0,0.1,0,0.1,0c0,0,0,0,0,0c0.2,0,0.4,0.2,0.4,0.4l-0.1,1
			c0.5,0.1,1,0.1,1.5,0.2l0.2-1c0-0.1,0.1-0.2,0.2-0.3c0.1-0.1,0.2-0.1,0.3-0.1l0.8,0.2c0.1,0,0.1,0,0.1,0.1c0,0,0.1,0.1,0.1,0.1
			c0.1,0.1,0.1,0.2,0,0.3l-0.2,1c0.2,0.1,0.5,0.1,0.7,0.2c0.2,0.1,0.5,0.1,0.7,0.2l0.3-1c0-0.1,0.1-0.2,0.2-0.2c0,0,0.1,0,0.2,0
			c0.1,0,0.1,0,0.2,0l0.8,0.3c0.1,0,0.2,0.1,0.2,0.2c0,0.1,0,0.2,0,0.3l-0.4,0.9c0.5,0.2,1,0.4,1.4,0.6l0.5-0.9
			c0.1-0.2,0.3-0.3,0.5-0.2c0,0,0,0,0,0c0,0,0,0,0.1,0c0.1,0,0.2,0.1,0.2,0.1c0.2,0.1,0.4,0.2,0.4,0.2c0.1,0.1,0.2,0.1,0.2,0.2
			c0,0.1,0,0.2,0,0.3l-0.5,0.9c0.4,0.3,0.9,0.5,1.3,0.8l0.6-0.8c0.1-0.2,0.4-0.2,0.6-0.1c0,0,0,0,0,0c0,0,0,0,0.1,0.1
			c0.1,0,0.1,0.1,0.2,0.2c0.2,0.1,0.3,0.3,0.3,0.3c0.2,0.1,0.2,0.4,0.1,0.6l-0.6,0.8c0.4,0.3,0.8,0.7,1.2,1l0.7-0.7
			c0.1-0.2,0.4-0.2,0.6,0c0,0,0,0,0,0c0,0,0,0,0.1,0.1c0.1,0.1,0.1,0.1,0.2,0.2c0.1,0.1,0.3,0.3,0.3,0.3c0.1,0.1,0.1,0.2,0.1,0.3
			c0,0.1,0,0.2-0.1,0.3l-0.8,0.7c0.3,0.4,0.7,0.8,1,1.2l0.8-0.6c0.2-0.1,0.4-0.1,0.6,0.1c0,0,0,0,0.1,0.1c0,0.1,0.1,0.1,0.2,0.2
			c0.1,0.2,0.2,0.3,0.2,0.3c0.1,0.1,0.1,0.2,0.1,0.3c0,0.1-0.1,0.2-0.2,0.3l-0.8,0.6c0.3,0.4,0.6,0.9,0.8,1.3l0.9-0.5
			c0.2-0.1,0.4,0,0.5,0.2l0.4,0.7c0.1,0.1,0.1,0.2,0,0.3c0,0.1-0.1,0.2-0.2,0.2l-0.9,0.4c0.2,0.5,0.4,0.9,0.6,1.4l1-0.4
			c0.2-0.1,0.4,0,0.5,0.2l0.3,0.8c0.1,0.2,0,0.4-0.2,0.5l-1,0.3c0.2,0.5,0.3,1,0.4,1.5l1-0.2c0.1,0,0.2,0,0.3,0.1
			c0,0,0.1,0.1,0.1,0.1c0,0,0,0,0,0.1c0,0,0,0.1,0,0.1l0.2,0.8c0,0.1,0,0.1,0,0.2c0,0.1,0,0.1-0.1,0.1c-0.1,0.1-0.1,0.1-0.3,0.2
			l-1,0.2c0.1,0.5,0.1,1,0.2,1.5l1-0.1c0.1,0,0.2,0,0.3,0.1c0,0,0.1,0.1,0.1,0.1c0,0,0,0,0,0.1c0,0,0,0.1,0,0.1l0,0.8
			c0,0.2-0.2,0.4-0.4,0.4l-1,0c0,0.5,0,1,0,1.5l1,0.1c0.2,0,0.4,0.2,0.4,0.4l-0.1,0.8c0,0.1-0.1,0.2-0.1,0.3
			c-0.1,0.1-0.2,0.1-0.3,0.1l-1-0.1c-0.1,0.5-0.2,1-0.3,1.5l1,0.2c0.2,0,0.3,0.3,0.3,0.5c0,0,0,0,0,0c0,0,0,0.1,0,0.1
			c0,0.1,0,0.2-0.1,0.3c-0.1,0.2-0.1,0.4-0.1,0.4c-0.1,0.2-0.3,0.4-0.5,0.3l-1-0.3c-0.1,0.5-0.3,1-0.5,1.5l1,0.4
			c0.2,0.1,0.3,0.3,0.2,0.5c0,0,0,0,0,0.1c0,0,0,0.1,0,0.1c0,0,0,0.1-0.1,0.1c-0.1,0.2-0.2,0.4-0.2,0.4c-0.1,0.2-0.3,0.3-0.5,0.2
			l-0.9-0.4c-0.2,0.5-0.4,0.9-0.7,1.4l0.9,0.5c0.2,0.1,0.3,0.3,0.1,0.5c0,0,0,0-0.1,0.1c0,0,0,0.1-0.1,0.1c0,0,0,0,0,0.1
			c0,0,0,0,0,0.1c-0.1,0.2-0.2,0.4-0.2,0.4c-0.1,0.2-0.4,0.3-0.5,0.1l-0.9-0.6c-0.3,0.4-0.6,0.9-0.9,1.3l0.8,0.6
			c0.2,0.1,0.2,0.4,0.1,0.6c0,0,0,0-0.1,0.1c0,0.1-0.1,0.1-0.2,0.2c-0.1,0.2-0.3,0.3-0.3,0.3c-0.1,0.2-0.4,0.2-0.6,0.1l-0.8-0.7
			c-0.3,0.4-0.7,0.8-1.1,1.1l0.7,0.7c0.2,0.2,0.1,0.4,0,0.6c0,0,0,0-0.1,0.1c0,0-0.1,0.1-0.1,0.1c0,0-0.1,0.1-0.1,0.1
			c-0.2,0.1-0.3,0.3-0.3,0.3c-0.2,0.2-0.4,0.1-0.6,0l-0.7-0.8c-0.4,0.3-0.8,0.7-1.2,1l0.6,0.8c0.1,0.2,0.1,0.4-0.1,0.6
			c0,0,0,0-0.1,0.1c-0.1,0-0.1,0.1-0.2,0.2c-0.2,0.1-0.3,0.2-0.3,0.2c-0.2,0.1-0.4,0.1-0.6-0.1l-0.5-0.9c-0.4,0.3-0.9,0.5-1.3,0.8
			l0.5,0.9c0.1,0.2,0,0.4-0.2,0.5c0,0,0,0-0.1,0.1c0,0-0.1,0-0.1,0.1c0,0-0.1,0-0.1,0.1c-0.2,0.1-0.4,0.2-0.4,0.2
			c-0.2,0.1-0.4,0-0.5-0.2l-0.4-0.9c-0.5,0.2-1,0.4-1.4,0.6l0.3,1c0.1,0.2,0,0.4-0.3,0.5c0,0,0,0-0.1,0c-0.1,0-0.2,0.1-0.3,0.1
			c-0.2,0.1-0.4,0.1-0.4,0.1c-0.2,0.1-0.4,0-0.5-0.3l-0.3-1c-0.5,0.1-1,0.3-1.5,0.4l0.2,1c0,0.2-0.1,0.4-0.3,0.5c0,0-0.1,0-0.1,0
			c-0.1,0-0.2,0-0.3,0c-0.2,0-0.4,0.1-0.4,0.1c-0.2,0-0.4-0.1-0.5-0.3l-0.1-1c-0.5,0.1-1,0.1-1.5,0.1l0,1c0,0.2-0.2,0.4-0.4,0.4
			c0,0-0.1,0-0.1,0c-0.1,0-0.2,0-0.3,0c-0.2,0-0.4,0-0.4,0c-0.2,0-0.4-0.2-0.4-0.4l0-1c-0.5,0-1,0-1.5-0.1l-0.1,1
			c0,0.2-0.2,0.4-0.4,0.3c0,0-0.1,0-0.1,0c0,0-0.1,0-0.1,0c0,0-0.1,0-0.2,0c-0.2,0-0.4-0.1-0.4-0.1c-0.2,0-0.4-0.2-0.3-0.4l0.2-1
			c-0.5-0.1-1-0.2-1.5-0.3l-0.2,1c-0.1,0.2-0.3,0.3-0.5,0.3c0,0-0.2-0.1-0.4-0.1c-0.2-0.1-0.4-0.1-0.4-0.1c-0.2-0.1-0.3-0.3-0.3-0.5
			l0.3-1c-0.5-0.2-1-0.3-1.5-0.5l-0.4,0.9c-0.1,0.2-0.3,0.3-0.5,0.2c0,0-0.2-0.1-0.4-0.2c0,0-0.1,0-0.1-0.1c0,0-0.1,0-0.1-0.1
			c-0.1,0-0.1-0.1-0.1-0.1c-0.2-0.1-0.3-0.3-0.2-0.5l0.5-0.9c-0.5-0.2-0.9-0.5-1.4-0.7l-0.5,0.9c-0.1,0.2-0.4,0.2-0.5,0.1
			c0,0-0.2-0.1-0.4-0.2c-0.1-0.1-0.2-0.1-0.2-0.2c-0.1,0-0.1-0.1-0.1-0.1c-0.2-0.1-0.2-0.4-0.1-0.6l0.6-0.8
			c-0.4-0.3-0.8-0.6-1.2-0.9l-0.6,0.8c-0.1,0.2-0.4,0.2-0.6,0c0,0-0.2-0.1-0.3-0.3c-0.1-0.1-0.2-0.1-0.2-0.2
			c-0.1-0.1-0.1-0.1-0.1-0.1c-0.2-0.2-0.2-0.4,0-0.6l0.7-0.7c-0.4-0.4-0.7-0.7-1.1-1.1l-0.8,0.7c-0.2,0.1-0.4,0.1-0.6,0
			c0,0-0.1-0.2-0.3-0.3c-0.1-0.1-0.1-0.2-0.2-0.2c0-0.1-0.1-0.1-0.1-0.1c-0.1-0.2-0.1-0.4,0-0.6l0.8-0.6c-0.3-0.4-0.6-0.8-0.9-1.2
			l-0.8,0.6c-0.2,0.1-0.4,0.1-0.5-0.1c0,0-0.1-0.2-0.2-0.3c0,0-0.1-0.1-0.1-0.1c0,0,0-0.1-0.1-0.1c0-0.1-0.1-0.1-0.1-0.1
			c-0.1-0.2-0.1-0.4,0.1-0.5l0.9-0.5c-0.3-0.4-0.5-0.9-0.7-1.4l-0.9,0.4c-0.2,0.1-0.4,0-0.5-0.2c0,0-0.1-0.2-0.2-0.4
			c0-0.1-0.1-0.2-0.1-0.3c0-0.1,0-0.1,0-0.1c-0.1-0.2,0-0.4,0.2-0.5l1-0.4c-0.2-0.5-0.4-1-0.5-1.5l-1,0.3c-0.2,0.1-0.4-0.1-0.5-0.3
			c0,0-0.1-0.2-0.1-0.4c0,0,0-0.1,0-0.1c0,0,0-0.1,0-0.1c0-0.1,0-0.1,0-0.1c-0.1-0.2,0.1-0.4,0.3-0.5l1-0.2c-0.1-0.5-0.2-1-0.3-1.5
			l-1,0.2c-0.2,0-0.4-0.1-0.4-0.3c0,0,0-0.2-0.1-0.4c0-0.1,0-0.2,0-0.3c0-0.1,0-0.1,0-0.1c0-0.2,0.1-0.4,0.3-0.4l1-0.1
			c0-0.5-0.1-1-0.1-1.5l-1,0c-0.2,0-0.4-0.2-0.4-0.4C205.3,58.3,205.3,58.1,205.3,57.9z"/>
		<path class="st1" d="M313.2,58.7c-0.4-0.1-0.7-0.3-1.1-0.4c-0.7-0.2-1.3-0.3-1.9-0.3c-0.1,0-0.3,0-0.4,0c-0.1,0-0.3,0-0.4,0.1
			c-0.1,0-0.2,0.1-0.4,0.1c-0.1,0.1-0.2,0.1-0.3,0.2c-0.2,0.1-0.4,0.3-0.5,0.5c-0.2,0.2-0.3,0.4-0.4,0.7c0,0.1-0.1,0.3-0.1,0.4
			c0,0.1-0.1,0.3-0.1,0.5c-0.1,0.3-0.1,0.7-0.1,1c0,0.7,0,1.5,0.2,2.4c0.1,0.7,0.3,1.3,0.6,2c3-1.4,5.7-3.3,7.9-5.7
			c-0.6-0.5-1.2-0.9-1.8-1.2C313.9,59.1,313.6,58.9,313.2,58.7z"/>
		<path class="st1" d="M302.2,63.7c-0.2-0.3-0.5-0.5-0.7-0.7c-0.2-0.2-0.5-0.4-0.7-0.5c-0.2-0.1-0.5-0.3-0.7-0.3
			c-0.2-0.1-0.5-0.1-0.7-0.1c-0.1,0-0.1,0-0.2,0c-0.1,0-0.1,0-0.2,0c-0.1,0-0.2,0.1-0.4,0.1c-0.1,0-0.2,0.1-0.4,0.2
			c-0.1,0.1-0.2,0.1-0.3,0.2c-0.2,0.2-0.5,0.4-0.7,0.6c-0.2,0.2-0.4,0.5-0.6,0.8c-0.4,0.6-0.8,1.3-1.1,2.1c-0.2,0.6-0.5,1.2-0.6,1.9
			c1.1,0.2,2.3,0.3,3.5,0.3c2.1,0,4.2-0.3,6.2-0.8c-0.2-0.7-0.5-1.3-0.8-1.9C303.2,64.9,302.7,64.2,302.2,63.7z"/>
		<path class="st1" d="M282.4,62.4c2.4,2.1,5.3,3.7,8.5,4.7c0.2-0.7,0.3-1.4,0.3-2c0-0.4,0-0.8,0-1.2c0-0.2,0-0.4,0-0.6
			c0-0.2,0-0.4-0.1-0.6c-0.1-0.4-0.1-0.7-0.2-1c-0.1-0.3-0.2-0.6-0.3-0.8c-0.1-0.1-0.1-0.2-0.2-0.4c-0.1-0.1-0.2-0.2-0.2-0.3
			c-0.2-0.2-0.4-0.3-0.6-0.5c-0.2-0.1-0.5-0.2-0.7-0.3c-0.2-0.1-0.5-0.1-0.8,0c-0.3,0-0.6,0.1-0.9,0.1c-0.2,0-0.3,0.1-0.5,0.1
			c-0.2,0.1-0.3,0.1-0.5,0.2c-0.3,0.1-0.7,0.3-1,0.5c-0.2,0.1-0.4,0.2-0.5,0.3c-0.2,0.1-0.4,0.2-0.5,0.3
			C283.5,61.5,282.9,61.9,282.4,62.4z"/>
		<circle class="st1" cx="298.2" cy="44.2" r="12.4"/>
	</g>
	<path class="st2" d="M219,139.2c-0.1-11.5-9.5-20.8-21-20.8h-14.2c2.9-2.8,4.7-6.8,4.7-11.2c0-8.6-7-15.6-15.6-15.6
		c-4.4,0-8.4,1.8-11.2,4.8c-0.6-10.5-5.1-19.9-12.1-26.8c0-0.1,0.1-0.1,0.1-0.2c0,0,0.1-0.3,0.1-0.7c0-0.2,0.1-0.3,0.1-0.5
		c0-0.1,0-0.2,0-0.2c0.1-0.4-0.2-0.7-0.5-0.8l-1.7-0.3c0.1-0.9,0.3-1.7,0.3-2.6l1.7,0.2c0.4,0,0.7-0.3,0.7-0.6c0,0,0-0.3,0-0.7
		c0-0.1,0-0.2,0-0.3c0-0.1,0-0.2,0-0.2c0-0.1,0-0.2,0-0.2c0-0.4-0.3-0.7-0.6-0.7l-1.7,0c0-0.9,0-1.8,0-2.6l1.7-0.1
		c0.4,0,0.6-0.3,0.6-0.7c0,0,0-0.4-0.1-0.7c0-0.2,0-0.3,0-0.5c0-0.1,0-0.2,0-0.2c0-0.4-0.4-0.7-0.7-0.6l-1.7,0.2
		c-0.1-0.9-0.3-1.7-0.4-2.6l1.7-0.3c0.4-0.1,0.6-0.4,0.5-0.8c0,0-0.1-0.3-0.2-0.7c0-0.1,0-0.2-0.1-0.3c0-0.1,0-0.2-0.1-0.2
		c0-0.1-0.1-0.2-0.1-0.2c-0.1-0.4-0.5-0.6-0.8-0.5l-1.7,0.5c-0.2-0.8-0.5-1.7-0.8-2.5l1.6-0.6c0.3-0.1,0.5-0.5,0.4-0.9
		c0,0-0.1-0.3-0.2-0.7c-0.1-0.2-0.1-0.3-0.2-0.4c-0.1-0.1-0.1-0.2-0.1-0.2c-0.2-0.4-0.5-0.5-0.9-0.4l-1.6,0.7
		c-0.4-0.8-0.7-1.6-1.2-2.4l1.5-0.8c0.3-0.2,0.4-0.6,0.2-0.9c0,0-0.2-0.3-0.3-0.6c0,0,0-0.1-0.1-0.1c0,0,0-0.1-0.1-0.1
		c0-0.1-0.1-0.1-0.1-0.2c-0.1-0.1-0.1-0.2-0.1-0.2c-0.2-0.3-0.6-0.4-0.9-0.2l-1.5,0.9c-0.5-0.7-1-1.5-1.5-2.2l1.4-1
		c0.3-0.2,0.3-0.6,0.1-0.9c0,0-0.2-0.3-0.4-0.6c-0.1-0.1-0.1-0.1-0.2-0.2c-0.1-0.1-0.1-0.1-0.1-0.2c-0.1-0.1-0.1-0.2-0.1-0.2
		c-0.3-0.3-0.7-0.3-1-0.1l-1.3,1.1c-0.6-0.7-1.2-1.3-1.8-1.9l1.2-1.2c0.3-0.3,0.2-0.7,0-0.9c0,0-0.3-0.2-0.5-0.5
		c-0.1-0.1-0.3-0.2-0.3-0.3c0,0-0.1-0.1-0.1-0.1c0,0,0,0,0,0c-0.3-0.3-0.7-0.2-1,0l-1.1,1.3c-0.7-0.6-1.4-1.1-2-1.6l1-1.4
		c0.1-0.1,0.1-0.3,0.1-0.5c0-0.2-0.1-0.3-0.3-0.4l-1.2-0.8c-0.3-0.2-0.8-0.1-0.9,0.2l-0.9,1.5c-0.7-0.5-1.5-0.9-2.3-1.3l0.8-1.5
		c0.2-0.3,0-0.7-0.3-0.9l-1.3-0.6c0,0-0.1,0-0.1-0.1c0,0-0.1,0-0.1,0c-0.1,0-0.2,0-0.3,0c-0.2,0.1-0.3,0.2-0.4,0.3l-0.7,1.6
		c-0.8-0.4-1.6-0.7-2.4-1l0.6-1.6c0.1-0.2,0-0.4,0-0.5c0-0.1-0.1-0.2-0.2-0.2c-0.1-0.1-0.1-0.1-0.2-0.1l-1.3-0.4c0,0-0.1,0-0.1,0
		c0,0-0.1,0-0.1,0c-0.1,0-0.2,0-0.3,0.1c-0.2,0.1-0.3,0.2-0.3,0.4l-0.5,1.7c-0.8-0.2-1.7-0.4-2.6-0.6l0.3-1.7
		c0.1-0.4-0.2-0.7-0.6-0.8l-1.4-0.2c-0.4-0.1-0.7,0.2-0.8,0.6l-0.2,1.7c-0.9-0.1-1.7-0.2-2.6-0.2l0.1-1.7c0-0.2-0.1-0.4-0.2-0.5
		c-0.1-0.1-0.3-0.2-0.5-0.2l-1.4,0c-0.4,0-0.7,0.3-0.7,0.7l0,1.7c-0.9,0-1.8,0.1-2.6,0.1l-0.2-1.7c0-0.2-0.1-0.3-0.2-0.4
		c-0.1-0.1-0.3-0.2-0.5-0.1c0,0-0.3,0-0.7,0.1c-0.2,0-0.3,0-0.5,0.1c-0.1,0-0.2,0-0.2,0c-0.4,0.1-0.6,0.4-0.6,0.8l0.3,1.7
		c-0.9,0.1-1.7,0.3-2.6,0.5l-0.4-1.7c0-0.2-0.2-0.3-0.3-0.4c-0.2-0.1-0.3-0.1-0.5-0.1c0,0-0.3,0.1-0.7,0.2c-0.2,0-0.3,0.1-0.5,0.1
		c-0.1,0-0.1,0-0.2,0c0,0-0.1,0-0.1,0c-0.4,0.1-0.6,0.5-0.5,0.8l0.5,1.7c-0.8,0.3-1.7,0.6-2.5,0.9L98.1,26c-0.1-0.3-0.5-0.5-0.9-0.3
		c0,0-0.3,0.1-0.6,0.3c-0.2,0.1-0.3,0.1-0.4,0.2c-0.1,0-0.1,0-0.1,0.1c0,0-0.1,0-0.1,0c-0.3,0.2-0.5,0.6-0.3,0.9l0.8,1.6
		c-0.8,0.4-1.6,0.8-2.3,1.2l-0.9-1.5c-0.1-0.2-0.2-0.3-0.4-0.3c-0.2,0-0.4,0-0.5,0.1c0,0-0.3,0.2-0.6,0.4c-0.1,0.1-0.3,0.2-0.4,0.3
		c-0.1,0-0.1,0.1-0.1,0.1c0,0,0,0,0,0c-0.3,0.2-0.4,0.6-0.2,0.9l1,1.4c-0.7,0.5-1.4,1-2.1,1.6l-1.1-1.4c-0.1-0.1-0.3-0.2-0.5-0.2
		c-0.2,0-0.4,0-0.5,0.2l-1.1,0.9c-0.1,0.1-0.1,0.1-0.2,0.2c0,0.1-0.1,0.2-0.1,0.3c0,0.2,0,0.3,0.2,0.5l1.2,1.3
		c-0.3,0.3-0.6,0.6-0.9,0.9c-0.3,0.3-0.6,0.6-0.9,0.9l-1.3-1.2c-0.1-0.1-0.3-0.2-0.5-0.2c-0.1,0-0.2,0-0.3,0.1
		c-0.1,0-0.2,0.1-0.2,0.2l-0.9,1.1c-0.1,0.1-0.2,0.3-0.2,0.5c0,0.2,0.1,0.3,0.2,0.5l1.4,1.1c-0.6,0.7-1.1,1.4-1.6,2.1l-1.4-1
		c-0.3-0.2-0.7-0.1-0.9,0.2c0,0,0,0,0,0c0,0,0,0.1-0.1,0.1c-0.1,0.1-0.2,0.3-0.3,0.4c-0.2,0.3-0.4,0.6-0.4,0.6
		c-0.1,0.2-0.1,0.4-0.1,0.5c0,0.2,0.1,0.3,0.3,0.4l1.5,0.9c-0.4,0.8-0.9,1.5-1.2,2.3l-1.6-0.8c-0.3-0.2-0.7,0-0.9,0.3c0,0,0,0,0,0.1
		c0,0,0,0.1-0.1,0.1c-0.1,0.1-0.1,0.3-0.2,0.4C77,45.7,76.8,46,76.8,46c-0.2,0.4,0,0.8,0.3,0.9l1.6,0.7c-0.3,0.8-0.6,1.6-0.9,2.5
		l-1.7-0.5c-0.3-0.1-0.7,0.1-0.8,0.5c0,0,0,0,0,0.1c0,0,0,0.1,0,0.2c0,0.1-0.1,0.3-0.1,0.5C75.1,51,75,51.3,75,51.3
		c-0.1,0.2,0,0.4,0.1,0.5c0.1,0.1,0.2,0.3,0.4,0.3l1.7,0.4c-0.2,0.9-0.4,1.7-0.5,2.6L75,54.8c-0.4-0.1-0.7,0.2-0.8,0.6
		c0,0,0,0.1,0,0.2c0,0.1,0,0.3-0.1,0.5c0,0.3-0.1,0.7-0.1,0.7c0,0.2,0,0.4,0.1,0.5c0.1,0.1,0.3,0.2,0.4,0.2l1.7,0.2
		c-0.1,0.9-0.1,1.7-0.1,2.6l-1.7,0c-0.4,0-0.7,0.3-0.7,0.7l0,1.4c0,0.2,0.1,0.4,0.2,0.5c0.1,0.1,0.3,0.2,0.5,0.2l1.7-0.1
		c0,0.9,0.1,1.7,0.2,2.6l-1.7,0.2c-0.4,0-0.6,0.4-0.6,0.8l0.2,1.4c0.1,0.4,0.4,0.6,0.8,0.6l1.7-0.3c0.2,0.9,0.4,1.7,0.6,2.6
		l-1.7,0.5c-0.2,0-0.3,0.2-0.4,0.3c0,0.1-0.1,0.2-0.1,0.3c0,0,0,0.1,0,0.1c0,0,0,0.1,0,0.1l0.4,1.3c0,0.1,0.1,0.2,0.1,0.2
		c0.1,0.1,0.1,0.1,0.2,0.2c0.2,0.1,0.3,0.1,0.5,0l1.6-0.6c0.3,0.8,0.6,1.6,1,2.4l-1.6,0.7c-0.2,0.1-0.3,0.2-0.3,0.4
		c0,0.1,0,0.2,0,0.3c0,0,0,0.1,0,0.1c0,0,0,0.1,0.1,0.1l0.6,1.3c0.2,0.4,0.6,0.5,0.9,0.3l1.5-0.8c0.4,0.8,0.9,1.5,1.3,2.3l-1.5,0.9
		c-0.3,0.2-0.4,0.6-0.2,0.9l0.8,1.2c0.1,0.2,0.3,0.3,0.4,0.3c0.2,0,0.4,0,0.5-0.1l1.4-1c0.1,0.1,0.2,0.2,0.3,0.3
		c-1.6,3.7-2.6,7.7-3,11.8c-1.6-2.3-3.5-4.4-5.7-6.1c0.2-0.1,0.5-0.2,0.8-0.4c0.8-0.3,1.6-0.7,1.6-0.7c0.3-0.1,0.4-0.3,0.4-0.4
		c0-0.2-0.1-0.3-0.4-0.4c0,0-0.8-0.4-1.6-0.7c-0.2-0.1-0.4-0.2-0.6-0.2c-0.2-0.1-0.4-0.1-0.5-0.2c-0.3-0.1-0.5-0.2-0.5-0.2
		c-0.3-0.1-0.6-0.1-0.9-0.1c0.3,0,0.7-0.1,0.9-0.2c0,0,0.7-0.4,1.5-0.8c0.4-0.2,0.7-0.4,1-0.6c0.3-0.2,0.5-0.3,0.5-0.3
		c0.5-0.3,0.4-0.7-0.1-0.9c0,0-0.2-0.1-0.5-0.2c-0.3-0.1-0.7-0.2-1.1-0.3c-0.8-0.2-1.6-0.4-1.6-0.4c-0.3-0.1-0.6-0.1-0.9,0
		c0.3-0.1,0.6-0.2,0.9-0.3c0,0,0.2-0.1,0.4-0.3c0.3-0.2,0.6-0.4,0.9-0.7c0.7-0.5,1.3-1.1,1.3-1.1c0.2-0.2,0.3-0.4,0.3-0.5
		c0-0.2-0.2-0.3-0.5-0.3c0,0-0.8-0.2-1.7-0.3c-0.4-0.1-0.8-0.1-1.2-0.2c-0.3,0-0.5-0.1-0.5-0.1c-0.3,0-0.6,0-0.9,0.1
		c0.3-0.1,0.6-0.3,0.8-0.4c0,0,0.6-0.6,1.2-1.2c0.3-0.3,0.6-0.6,0.8-0.8c0.2-0.2,0.4-0.4,0.4-0.4c0.4-0.4,0.2-0.8-0.3-0.8
		c0,0-0.2,0-0.5,0c-0.2,0-0.3,0-0.5,0c-0.2,0-0.4,0-0.6,0c-0.9,0-1.7,0-1.7,0c-0.3,0-0.6,0.1-0.9,0.2c0.3-0.1,0.6-0.3,0.8-0.5
		c0,0,0.1-0.2,0.3-0.4c0.2-0.2,0.5-0.6,0.7-0.9c0.5-0.7,1-1.4,1-1.4c0.2-0.2,0.2-0.4,0.1-0.6c-0.1-0.1-0.3-0.2-0.5-0.2
		c0,0-0.9,0-1.7,0.1c-0.4,0-0.8,0.1-1.2,0.1c-0.3,0-0.5,0.1-0.5,0.1c-0.3,0-0.6,0.2-0.9,0.3c0.3-0.2,0.5-0.4,0.7-0.6
		c0,0,0.5-0.7,0.9-1.4c0.2-0.4,0.4-0.7,0.6-1c0.2-0.3,0.3-0.5,0.3-0.5c0.3-0.5,0-0.8-0.5-0.7c0,0-0.2,0-0.5,0.1
		c-0.2,0-0.3,0.1-0.5,0.1c-0.2,0-0.4,0.1-0.6,0.1c-0.8,0.2-1.7,0.4-1.7,0.4c-0.3,0.1-0.6,0.2-0.8,0.4c0.3-0.2,0.5-0.5,0.6-0.7
		c0,0,0.1-0.2,0.2-0.5c0.1-0.3,0.3-0.7,0.5-1.1c0.4-0.8,0.7-1.6,0.7-1.6c0.1-0.3,0.1-0.5,0-0.6c-0.1-0.1-0.3-0.1-0.6-0.1
		c0,0-0.8,0.3-1.6,0.5c-0.4,0.1-0.8,0.3-1.1,0.4c-0.3,0.1-0.5,0.2-0.5,0.2c-0.3,0.1-0.5,0.3-0.8,0.5c0.2-0.2,0.4-0.5,0.5-0.8
		c0,0,0.3-0.8,0.6-1.6c0.1-0.2,0.1-0.4,0.2-0.6c0.1-0.2,0.1-0.4,0.2-0.5c0.1-0.3,0.1-0.5,0.1-0.5c0.1-0.5-0.2-0.8-0.7-0.6
		c0,0-0.2,0.1-0.5,0.2c-0.3,0.1-0.7,0.3-1.1,0.5c-0.8,0.4-1.5,0.8-1.5,0.8c-0.2,0.1-0.5,0.4-0.7,0.6c0.2-0.3,0.4-0.6,0.4-0.8
		c0,0,0-0.2,0.1-0.5c0.1-0.3,0.2-0.7,0.2-1.1c0.2-0.8,0.3-1.7,0.3-1.7c0-0.3,0-0.5-0.2-0.6c-0.1-0.1-0.3-0.1-0.6,0.1
		c0,0-0.7,0.4-1.5,0.9c-0.4,0.2-0.7,0.5-1,0.6c-0.3,0.2-0.4,0.3-0.4,0.3c-0.2,0.2-0.4,0.4-0.6,0.7c0.2-0.3,0.3-0.6,0.3-0.9
		c0,0,0.1-0.8,0.2-1.7c0-0.2,0-0.4,0-0.6c0-0.2,0-0.4,0-0.5c0-0.3,0-0.5,0-0.5c0-0.6-0.3-0.7-0.8-0.4c0,0-0.2,0.1-0.4,0.3
		c-0.2,0.2-0.6,0.5-0.9,0.7c-0.7,0.6-1.3,1.1-1.3,1.1c-0.2,0.2-0.4,0.5-0.5,0.8c0.1-0.3,0.2-0.6,0.2-0.9c0,0,0-0.2,0-0.5
		c0-0.3,0-0.7,0-1.2c0-0.8-0.1-1.7-0.1-1.7c0-0.3-0.1-0.5-0.3-0.5c-0.2-0.1-0.3,0-0.5,0.2c0,0-0.6,0.6-1.2,1.2
		c-0.3,0.3-0.6,0.6-0.8,0.9c-0.2,0.2-0.3,0.4-0.3,0.4c-0.2,0.2-0.3,0.5-0.4,0.8c0.1-0.3,0.1-0.6,0.1-0.9c0,0-0.1-0.8-0.3-1.7
		c-0.1-0.4-0.2-0.9-0.2-1.2c-0.1-0.3-0.1-0.5-0.1-0.5c-0.1-0.5-0.5-0.6-0.9-0.2c0,0-0.1,0.2-0.3,0.4c-0.2,0.3-0.5,0.6-0.7,0.9
		c-0.5,0.7-1,1.4-1,1.4c-0.2,0.2-0.3,0.5-0.3,0.9c0.1-0.3,0.1-0.7,0-0.9c0,0-0.1-0.2-0.1-0.5c0-0.2-0.1-0.3-0.1-0.5
		c-0.1-0.2-0.1-0.4-0.2-0.6c-0.2-0.8-0.5-1.6-0.5-1.6C46,52.1,45.9,52,45.7,52c-0.2,0-0.3,0.1-0.5,0.3c0,0-0.5,0.7-0.9,1.5
		c-0.4,0.7-0.8,1.5-0.8,1.5c-0.1,0.2-0.2,0.6-0.2,0.9c0-0.3,0-0.7-0.1-0.9c0,0-0.3-0.8-0.7-1.6c-0.3-0.8-0.7-1.6-0.7-1.6
		c-0.1-0.3-0.3-0.4-0.4-0.4c-0.2,0-0.3,0.1-0.4,0.4c0,0-0.4,0.8-0.7,1.6c-0.1,0.2-0.2,0.4-0.2,0.6c-0.1,0.2-0.1,0.4-0.2,0.5
		c-0.1,0.3-0.2,0.5-0.2,0.5c-0.1,0.3-0.1,0.6-0.1,0.9c0-0.3-0.1-0.6-0.2-0.9c0,0-0.4-0.7-0.8-1.5c-0.2-0.4-0.4-0.7-0.6-1
		c-0.2-0.3-0.3-0.5-0.3-0.5c-0.3-0.5-0.7-0.4-0.9,0.1c0,0-0.1,0.2-0.2,0.5c-0.1,0.3-0.2,0.7-0.3,1.1c-0.2,0.8-0.4,1.6-0.4,1.6
		c-0.1,0.3-0.1,0.6,0,0.9c-0.1-0.3-0.2-0.6-0.3-0.9c0,0-0.1-0.2-0.3-0.4c-0.2-0.3-0.4-0.6-0.7-0.9c-0.5-0.7-1.1-1.3-1.1-1.3
		c-0.2-0.2-0.4-0.3-0.5-0.3c-0.2,0-0.3,0.2-0.3,0.5c0,0-0.2,0.9-0.3,1.7c-0.1,0.4-0.1,0.8-0.2,1.2c0,0.3-0.1,0.5-0.1,0.5
		c0,0.3,0,0.6,0.1,0.9c-0.1-0.3-0.3-0.6-0.4-0.8c0,0-0.6-0.6-1.2-1.2c-0.3-0.3-0.6-0.6-0.8-0.8c-0.2-0.2-0.4-0.4-0.4-0.4
		c-0.4-0.4-0.8-0.2-0.8,0.3c0,0,0,0.2,0,0.5c0,0.2,0,0.3,0,0.5c0,0.2,0,0.4,0,0.6c0,0.9,0,1.7,0,1.7c0,0.3,0.1,0.6,0.2,0.9
		c-0.1-0.3-0.3-0.6-0.5-0.8c0,0-0.2-0.1-0.4-0.3c-0.2-0.2-0.6-0.5-0.9-0.7c-0.7-0.5-1.4-1-1.4-1C25.2,56,25,56,24.9,56.1
		c-0.1,0.1-0.2,0.3-0.2,0.5c0,0,0,0.9,0.1,1.7c0,0.4,0.1,0.8,0.1,1.2C25,59.8,25,60,25,60c0,0.3,0.2,0.6,0.3,0.9
		c-0.2-0.3-0.4-0.5-0.6-0.7c0,0-0.7-0.5-1.4-0.9c-0.4-0.2-0.7-0.4-1-0.6c-0.3-0.2-0.5-0.3-0.5-0.3c-0.5-0.3-0.8,0-0.7,0.5
		c0,0,0,0.2,0.1,0.5c0,0.2,0.1,0.3,0.1,0.5c0,0.2,0.1,0.4,0.1,0.6c0.2,0.8,0.4,1.7,0.4,1.7c0.1,0.3,0.2,0.6,0.4,0.8
		c-0.2-0.3-0.5-0.5-0.7-0.6c0,0-0.2-0.1-0.5-0.2c-0.3-0.1-0.7-0.3-1.1-0.5c-0.8-0.4-1.6-0.7-1.6-0.7c-0.3-0.1-0.5-0.1-0.6,0
		c-0.1,0.1-0.1,0.3-0.1,0.6c0,0,0.3,0.8,0.5,1.6c0.1,0.4,0.3,0.8,0.4,1.1c0.1,0.3,0.2,0.5,0.2,0.5c0.1,0.3,0.3,0.5,0.5,0.8
		c-0.2-0.2-0.5-0.4-0.8-0.5c0,0-0.8-0.3-1.6-0.6c-0.2-0.1-0.4-0.1-0.6-0.2c-0.2-0.1-0.4-0.1-0.5-0.2c-0.3-0.1-0.5-0.1-0.5-0.1
		c-0.5-0.1-0.8,0.2-0.6,0.7c0,0,0.1,0.2,0.2,0.5c0.1,0.3,0.3,0.7,0.5,1.1c0.4,0.8,0.8,1.5,0.8,1.5c0.1,0.2,0.4,0.5,0.6,0.7
		c-0.3-0.2-0.6-0.4-0.8-0.4c0,0-0.2,0-0.5-0.1c-0.3-0.1-0.7-0.2-1.1-0.2c-0.8-0.2-1.7-0.3-1.7-0.3c-0.3,0-0.5,0-0.6,0.2
		c-0.1,0.1-0.1,0.3,0.1,0.6c0,0,0.4,0.7,0.9,1.5c0.2,0.4,0.5,0.7,0.6,1c0.2,0.3,0.3,0.4,0.3,0.4c0.2,0.2,0.4,0.4,0.7,0.6
		c-0.3-0.2-0.6-0.3-0.9-0.3c0,0-0.8-0.1-1.7-0.2c-0.2,0-0.4,0-0.6,0c-0.2,0-0.4,0-0.5,0c-0.3,0-0.5,0-0.5,0c-0.6,0-0.7,0.3-0.4,0.8
		c0,0,0.1,0.2,0.3,0.4c0.2,0.2,0.5,0.6,0.7,0.9c0.6,0.7,1.1,1.3,1.1,1.3c0.2,0.2,0.5,0.4,0.8,0.5c-0.3-0.1-0.6-0.2-0.9-0.2
		c0,0-0.2,0-0.5,0c-0.3,0-0.7,0-1.2,0c-0.8,0-1.7,0.1-1.7,0.1c-0.3,0-0.5,0.1-0.5,0.3c-0.1,0.2,0,0.3,0.2,0.5c0,0,0.6,0.6,1.2,1.2
		c0.3,0.3,0.6,0.6,0.9,0.8c0.2,0.2,0.4,0.3,0.4,0.3c0.2,0.2,0.5,0.3,0.8,0.4c-0.3-0.1-0.6-0.1-0.9-0.1c0,0-0.8,0.1-1.7,0.3
		c-0.4,0.1-0.9,0.2-1.2,0.2C7.8,79,7.6,79,7.6,79c-0.5,0.1-0.6,0.5-0.2,0.9c0,0,0.2,0.1,0.4,0.3c0.3,0.2,0.6,0.5,0.9,0.7
		c0.7,0.5,1.4,1,1.4,1c0.2,0.2,0.5,0.3,0.9,0.3c-0.3-0.1-0.7-0.1-0.9,0c0,0-0.2,0.1-0.5,0.1c-0.2,0-0.3,0.1-0.5,0.1
		c-0.2,0.1-0.4,0.1-0.6,0.2c-0.8,0.2-1.6,0.5-1.6,0.5c-0.3,0.1-0.4,0.2-0.4,0.4c0,0.2,0.1,0.3,0.3,0.5c0,0,0.7,0.5,1.5,0.9
		c0.7,0.4,1.5,0.8,1.5,0.8c0.2,0.1,0.6,0.2,0.9,0.2c-0.3,0-0.7,0-0.9,0.1c0,0-0.8,0.3-1.6,0.7c-0.8,0.3-1.6,0.7-1.6,0.7
		c-0.3,0.1-0.4,0.3-0.4,0.4c0,0.2,0.1,0.3,0.4,0.4c0,0,0.8,0.4,1.6,0.7c0.2,0.1,0.4,0.2,0.6,0.2c0.2,0.1,0.4,0.1,0.5,0.2
		c0.3,0.1,0.5,0.2,0.5,0.2c0.3,0.1,0.6,0.1,0.9,0.1c-0.3,0-0.7,0.1-0.9,0.2c0,0-0.7,0.4-1.5,0.8c-0.4,0.2-0.7,0.4-1,0.6
		c-0.3,0.2-0.5,0.3-0.5,0.3C6.4,92,6.4,92.5,7,92.6c0,0,0.2,0.1,0.5,0.2c0.3,0.1,0.7,0.2,1.1,0.3c0.8,0.2,1.6,0.4,1.6,0.4
		c0.3,0.1,0.6,0.1,0.9,0c-0.3,0.1-0.6,0.2-0.9,0.3c0,0-0.2,0.1-0.4,0.3c-0.3,0.2-0.6,0.4-0.9,0.7c-0.7,0.5-1.3,1.1-1.3,1.1
		c-0.2,0.2-0.3,0.4-0.3,0.5c0,0.2,0.2,0.3,0.5,0.3c0,0,0.9,0.2,1.7,0.3c0.4,0.1,0.8,0.1,1.2,0.2c0.3,0,0.5,0.1,0.5,0.1
		c0.3,0,0.6,0,0.9-0.1c-0.3,0.1-0.6,0.3-0.8,0.4c0,0-0.6,0.6-1.2,1.2c-0.3,0.3-0.6,0.6-0.8,0.8C9,99.9,8.9,100,8.9,100
		c-0.4,0.4-0.2,0.8,0.3,0.8c0,0,0.2,0,0.5,0c0.2,0,0.3,0,0.5,0c0.2,0,0.4,0,0.6,0c0.9,0,1.7,0,1.7,0c0.3,0,0.6-0.1,0.9-0.2
		c-0.3,0.1-0.6,0.3-0.8,0.5c0,0-0.1,0.2-0.3,0.4c-0.2,0.2-0.5,0.6-0.7,0.9c-0.5,0.7-1,1.4-1,1.4c-0.2,0.2-0.2,0.4-0.1,0.6
		c0.1,0.1,0.3,0.2,0.5,0.2c0,0,0.9,0,1.7-0.1c0.4,0,0.8-0.1,1.2-0.1c0.3,0,0.5-0.1,0.5-0.1c0.3,0,0.6-0.2,0.9-0.3
		c-0.3,0.2-0.5,0.4-0.7,0.6c0,0-0.5,0.7-0.9,1.4c-0.2,0.4-0.4,0.7-0.6,1c-0.2,0.3-0.3,0.5-0.3,0.5c-0.3,0.5,0,0.8,0.5,0.7
		c0,0,0.2,0,0.5-0.1c0.2,0,0.3-0.1,0.5-0.1c0.2,0,0.4-0.1,0.6-0.1c0.8-0.2,1.7-0.4,1.7-0.4c0.3-0.1,0.6-0.2,0.8-0.4
		c-0.3,0.2-0.5,0.5-0.6,0.7c0,0-0.1,0.2-0.2,0.5c-0.1,0.3-0.3,0.7-0.5,1.1c-0.4,0.8-0.7,1.6-0.7,1.6c-0.1,0.3-0.1,0.5,0,0.6
		c0.1,0.1,0.3,0.1,0.6,0.1c0,0,0.8-0.3,1.6-0.5c0.4-0.1,0.8-0.3,1.1-0.4c0.3-0.1,0.5-0.2,0.5-0.2c0.3-0.1,0.5-0.3,0.8-0.5
		c-0.2,0.2-0.4,0.5-0.5,0.8c0,0-0.3,0.8-0.6,1.6c-0.1,0.2-0.1,0.4-0.2,0.6c-0.1,0.2-0.1,0.4-0.2,0.5c-0.1,0.3-0.1,0.5-0.1,0.5
		c-0.1,0.5,0.2,0.8,0.7,0.6c0,0,0.2-0.1,0.5-0.2c0.3-0.1,0.7-0.3,1.1-0.5c0.8-0.4,1.5-0.8,1.5-0.8c0.2-0.1,0.5-0.4,0.7-0.6
		c-0.2,0.3-0.4,0.6-0.4,0.8c0,0,0,0.2-0.1,0.5c-0.1,0.3-0.2,0.7-0.2,1.1c-0.2,0.8-0.3,1.7-0.3,1.7c0,0.3,0,0.5,0.2,0.6
		c0.1,0.1,0.3,0.1,0.6-0.1c0,0,0.7-0.4,1.5-0.9c0.4-0.2,0.7-0.5,1-0.6c0.3-0.2,0.4-0.3,0.4-0.3c0.2-0.2,0.4-0.4,0.6-0.7
		c-0.2,0.3-0.3,0.6-0.3,0.9c0,0-0.1,0.8-0.2,1.7c0,0.2,0,0.4,0,0.6c0,0.2,0,0.4,0,0.5c0,0,0,0.1,0,0.1h-5.1c-11.6,0-21,9.4-21,21
		h9.9c0,0.2,0,0.4-0.1,0.6c-0.3,0-0.5,0.1-0.7,0.2c-0.1,0.1-0.2,0.2-0.2,0.3c-0.1,0.1-0.1,0.3-0.1,0.4c0,0.2,0,0.3,0.1,0.4
		c0,0.1,0.1,0.3,0.2,0.4c0.1,0.1,0.2,0.2,0.3,0.2c0.1,0,0.2,0.1,0.4,0.1c0,0.3,0,0.7,0.1,1c-0.1,0-0.3,0.1-0.4,0.1
		c-0.1,0.1-0.2,0.2-0.3,0.3c-0.1,0.1-0.1,0.2-0.2,0.4c0,0.1,0,0.3,0,0.4c0,0.2,0.1,0.3,0.1,0.4c0.1,0.1,0.2,0.2,0.3,0.3
		c0.2,0.2,0.5,0.2,0.8,0.2c0.1,0.3,0.2,0.7,0.2,1c-0.3,0.1-0.5,0.3-0.6,0.5c-0.1,0.1-0.1,0.3-0.1,0.4c0,0.1,0,0.3,0.1,0.4
		c0.1,0.1,0.1,0.3,0.2,0.4c0.1,0.1,0.2,0.2,0.3,0.2c0.1,0.1,0.3,0.1,0.4,0.1c0.1,0,0.3,0,0.4-0.1c0.1,0.3,0.3,0.6,0.4,1
		c-0.2,0.1-0.4,0.3-0.5,0.6c0,0.1-0.1,0.3,0,0.4c0,0.1,0,0.1,0,0.2c0,0.1,0.1,0.1,0.1,0.2c0,0.1,0.1,0.1,0.1,0.2
		c0,0.1,0.1,0.1,0.2,0.1c0.1,0.1,0.2,0.1,0.4,0.2c0.3,0.1,0.5,0,0.8-0.1c0.2,0.3,0.4,0.6,0.6,0.9c-0.2,0.2-0.4,0.4-0.4,0.7
		c0,0.1,0,0.3,0,0.4c0,0.1,0.1,0.3,0.2,0.4c0.2,0.2,0.5,0.4,0.7,0.4c0.1,0,0.3,0,0.4-0.1c0.1,0,0.2-0.1,0.3-0.2
		c0.2,0.3,0.5,0.5,0.7,0.7c-0.1,0.1-0.2,0.2-0.2,0.3c0,0.1,0,0.1,0,0.2c0,0.1,0,0.1,0,0.2c0,0.1,0,0.3,0.1,0.4
		c0.1,0.1,0.2,0.2,0.3,0.3c0.1,0.1,0.3,0.2,0.4,0.2c0.1,0,0.3,0.1,0.4,0c0.1,0,0.3-0.1,0.4-0.1c0.1-0.1,0.2-0.2,0.3-0.3
		c0.3,0.2,0.6,0.4,0.9,0.6c-0.1,0.2-0.2,0.5-0.1,0.8c0,0.1,0.1,0.3,0.2,0.4c0,0.1,0.1,0.1,0.1,0.2c0.1,0,0.1,0.1,0.2,0.1
		c0.1,0,0.1,0.1,0.2,0.1c0.1,0,0.1,0,0.2,0c0.1,0,0.3,0,0.4,0c0.3-0.1,0.5-0.3,0.6-0.5c0.3,0.1,0.6,0.3,1,0.4c0,0.1-0.1,0.3-0.1,0.4
		c0,0.1,0,0.1,0,0.2c0,0.1,0,0.1,0.1,0.2c0.1,0.1,0.1,0.2,0.3,0.3c0.1,0.1,0.2,0.2,0.4,0.2c0.1,0,0.3,0.1,0.4,0.1
		c0.1,0,0.3-0.1,0.4-0.1c0.2-0.1,0.4-0.3,0.5-0.6c0.3,0.1,0.7,0.2,1,0.2c0,0.3,0,0.5,0.2,0.8c0.1,0.1,0.2,0.2,0.3,0.3
		c0.1,0,0.1,0.1,0.2,0.1c0.1,0,0.1,0,0.2,0.1c0.3,0,0.6,0,0.8-0.2c0.2-0.2,0.3-0.4,0.4-0.7c0.3,0,0.7,0,1,0c0,0.3,0.1,0.5,0.3,0.7
		c0,0,0.1,0.1,0.2,0.1c0.1,0,0.1,0.1,0.2,0.1c0.1,0,0.1,0,0.2,0.1c0.1,0,0.1,0,0.2,0c0.1,0,0.2,0,0.2,0c0.1,0,0.1,0,0.2-0.1
		c0.1-0.1,0.2-0.1,0.3-0.3c0.2-0.2,0.3-0.5,0.2-0.7c0.3,0,0.7-0.1,1-0.1c0.1,0.3,0.2,0.5,0.4,0.6c0.1,0.1,0.2,0.1,0.4,0.1
		c0.1,0,0.3,0,0.4,0c0.1,0,0.3-0.1,0.4-0.2c0.1-0.1,0.2-0.2,0.3-0.3c0.1-0.2,0.2-0.5,0.1-0.8c0.3-0.1,0.7-0.2,1-0.3
		c0.1,0.3,0.3,0.4,0.5,0.6c0.1,0.1,0.3,0.1,0.4,0.1c0,0,0.1,0,0.1,0c0,0,0.1,0,0.1,0c0.1,0,0.1,0,0.2-0.1c0.3-0.1,0.5-0.4,0.6-0.6
		c0-0.1,0.1-0.3,0.1-0.4c0-0.1,0-0.3-0.1-0.4c0.3-0.2,0.6-0.3,0.9-0.5c0.1,0.2,0.4,0.4,0.6,0.4c0.3,0.1,0.6,0,0.8-0.2
		c0.1-0.1,0.2-0.2,0.3-0.3c0.1-0.1,0.1-0.3,0.1-0.4c0-0.3,0-0.5-0.2-0.8c0.3-0.2,0.5-0.4,0.8-0.7c0,0,0,0,0,0
		c0.2,0.2,0.4,0.3,0.7,0.3c0.1,0,0.1,0,0.2,0c0.1,0,0.1,0,0.2-0.1c0.1,0,0.1-0.1,0.2-0.1c0.1,0,0.1-0.1,0.2-0.1
		c0.1-0.1,0.2-0.2,0.2-0.4c0.1-0.1,0.1-0.3,0.1-0.4c0-0.3-0.1-0.5-0.3-0.7c0.2-0.3,0.5-0.5,0.7-0.8c0.2,0.2,0.5,0.2,0.8,0.2
		c0.1,0,0.3-0.1,0.4-0.2c0,0,0.1,0,0.1-0.1c0,0,0.1,0,0.1-0.1c0.1-0.1,0.1-0.1,0.1-0.2c0,0,0-0.1,0.1-0.1c0,0,0-0.1,0-0.1
		c0-0.1,0-0.1,0.1-0.2c0-0.1,0-0.3,0-0.4c0-0.1-0.1-0.3-0.2-0.4c-0.1-0.1-0.2-0.2-0.3-0.3c0.2-0.3,0.3-0.6,0.5-0.9
		c0.1,0.1,0.2,0.1,0.4,0.1c0.1,0,0.3,0,0.4-0.1c0.1,0,0.2-0.1,0.4-0.2c0.1-0.1,0.2-0.2,0.3-0.4c0.1-0.3,0.1-0.6,0-0.8
		c-0.1-0.2-0.3-0.4-0.6-0.5c0.1-0.3,0.2-0.7,0.3-1c0.3,0.1,0.5,0,0.8-0.1c0.1-0.1,0.2-0.2,0.3-0.3c0.1-0.1,0.1-0.3,0.2-0.4
		c0-0.1,0-0.3,0-0.4c0-0.1-0.1-0.3-0.2-0.4c-0.1-0.1-0.2-0.2-0.3-0.3c-0.1-0.1-0.2-0.1-0.4-0.1c0.1-0.3,0.1-0.7,0.1-1
		c0.3,0,0.5-0.1,0.7-0.2c0.1-0.1,0.2-0.2,0.2-0.3c0.1-0.1,0.1-0.3,0.1-0.4c0-0.2,0-0.3-0.1-0.4c0-0.1-0.1-0.3-0.2-0.3
		c-0.1-0.1-0.2-0.2-0.3-0.2c-0.1,0-0.2-0.1-0.4-0.1c0-0.3,0-0.7-0.1-1c0.1,0,0.3-0.1,0.4-0.1c0.1-0.1,0.2-0.2,0.3-0.3
		c0.1-0.1,0.1-0.2,0.2-0.4c0,0,0-0.1,0-0.1h1l19,18.4l15.7-15.2l15.7,15.2l15.7-15.2l15.7,15.2l15.7-15.2l15.7,15.2l15.7-15.2
		l15.7,15.2l15.7-15.2l15.7,15.2l19.2-18.6H219z M37.5,90.6c-0.6-0.9-1-2-0.9-3.2c0.1-2.9,2.6-5.1,5.5-5c1.7,0.1,3.2,1,4.1,2.4
		C42.9,86.1,40,88.1,37.5,90.6z M130.5,53.9c0-0.2,0.1-0.4,0.1-0.7c0.1-0.2,0.1-0.5,0.2-0.7c0.2-0.5,0.4-1,0.8-1.6
		c0.3-0.6,0.7-1.2,1.1-1.8c0.2-0.3,0.4-0.6,0.7-1c0.2-0.3,0.5-0.7,0.7-1c0.5-0.7,1.1-1.4,1.7-2c0.9-1,2-2.1,3.2-3.1
		c4,5.6,6,12.3,6,18.9c-1.6-0.1-3-0.3-4.4-0.6c-0.9-0.2-1.8-0.4-2.6-0.7c-0.8-0.2-1.6-0.5-2.3-0.8c-0.7-0.3-1.4-0.5-1.9-0.8
		c-0.6-0.3-1.1-0.6-1.5-0.9c-0.1-0.1-0.2-0.2-0.3-0.2c-0.1-0.1-0.2-0.2-0.3-0.2c-0.2-0.2-0.4-0.3-0.5-0.5c-0.1-0.2-0.3-0.3-0.4-0.5
		c-0.1-0.2-0.2-0.4-0.2-0.6C130.5,54.7,130.5,54.3,130.5,53.9z M128.5,32.5c-0.9,1.3-1.8,2.4-2.7,3.5c-0.6,0.7-1.3,1.3-1.9,1.9
		c-0.6,0.6-1.2,1.1-1.8,1.6c-1.2,0.9-2.2,1.7-3.2,2.2c-0.2,0.1-0.5,0.2-0.7,0.3c-0.2,0.1-0.5,0.2-0.7,0.2c-0.2,0-0.4,0.1-0.6,0.1
		c-0.2,0-0.4,0-0.6-0.1c-0.2-0.1-0.4-0.1-0.6-0.2c-0.2-0.1-0.4-0.2-0.5-0.3c-0.2-0.1-0.4-0.3-0.5-0.4c-0.2-0.2-0.3-0.4-0.5-0.6
		c-0.2-0.2-0.3-0.4-0.5-0.7c-0.2-0.2-0.3-0.5-0.5-0.8c-0.3-0.5-0.7-1.2-1-1.9c-0.7-1.3-1.3-2.9-1.9-4.7c-0.4-1.3-0.8-2.8-1-4.3
		C115.8,27.7,122.6,29.1,128.5,32.5z M102.9,51.7c5.1-5.1,13.5-5.1,18.6,0c1.8,1.8,3,4.1,3.5,6.4c-1.3-0.1-2.6-0.2-4-0.2
		c-7.9,0-15.4,2.3-21.6,6.2C98.4,59.9,99.5,55.1,102.9,51.7z M88.9,37.8c2.1-2.1,4.3-3.8,6.8-5.2c0.7,1.4,1.2,2.7,1.6,4.1
		c0.3,0.9,0.5,1.7,0.7,2.6c0.1,0.4,0.2,0.8,0.3,1.2c0.1,0.4,0.2,0.8,0.2,1.2c0.1,0.7,0.2,1.4,0.2,2.1c0,0.3,0,0.6,0,0.9
		c0,0.3,0,0.6,0,0.8c0,0.3-0.1,0.5-0.1,0.8c0,0.2-0.1,0.5-0.2,0.7c0,0.1-0.1,0.2-0.1,0.3c0,0.1-0.1,0.2-0.1,0.3
		c-0.1,0.2-0.2,0.3-0.4,0.5c-0.5,0.6-1.4,0.9-2.4,1.1c-0.3,0-0.5,0.1-0.8,0.1c-0.3,0-0.6,0-0.9,0.1c-0.3,0-0.7,0-1,0
		c-0.3,0-0.7,0-1.1,0c-1.5-0.1-3.2-0.3-5-0.7c-1.4-0.3-2.8-0.7-4.2-1.2C83.9,43.8,86.1,40.6,88.9,37.8z M79.3,61.1
		c1.5,0.1,3,0.3,4.3,0.6c0.9,0.2,1.8,0.4,2.6,0.7c0.8,0.2,1.6,0.5,2.3,0.8c0.7,0.3,1.4,0.5,1.9,0.8c0.6,0.3,1.1,0.6,1.5,0.9
		c0.1,0.1,0.2,0.2,0.3,0.2c0.1,0.1,0.2,0.2,0.3,0.2c0.2,0.2,0.4,0.3,0.5,0.5c0.1,0.2,0.3,0.3,0.4,0.5c0.1,0.2,0.2,0.4,0.2,0.6
		c0.1,0.4,0.1,0.8,0.1,1.2c0,0.1,0,0.2-0.1,0.3c-3.5,3.2-6.5,6.9-8.7,11.2C81.2,74.1,79.3,67.6,79.3,61.1z M68.7,77.5
		c1,2.6,1.6,5.3,1.7,8.2c-2.4-1.2-5-2.2-7.7-2.7c0-0.1,0.1-0.3,0.2-0.4c0.1-0.2,0.2-0.3,0.2-0.5c0.1-0.2,0.2-0.3,0.3-0.5
		c0.2-0.3,0.5-0.6,0.8-0.9c0.6-0.6,1.3-1.3,2.1-1.8C67,78.3,67.8,77.9,68.7,77.5z M56.7,70.9c0-0.4,0.1-0.8,0.1-1.2
		c0.1-0.4,0.2-0.9,0.3-1.3c0.1-0.5,0.3-0.9,0.5-1.4c0.3-0.8,0.8-1.6,1.3-2.4c3.1,2.3,5.8,5.3,7.7,8.7c-0.8,0.4-1.7,0.8-2.5,1
		c-1,0.3-1.9,0.4-2.8,0.5c-0.4,0-0.8,0-1.2,0c-0.4,0-0.7-0.1-1.1-0.2c-0.3-0.1-0.6-0.2-0.9-0.4c-0.3-0.1-0.5-0.3-0.7-0.6
		c0-0.1-0.1-0.1-0.1-0.2c0-0.1-0.1-0.1-0.1-0.2c-0.1-0.1-0.1-0.3-0.2-0.4c-0.1-0.1-0.1-0.3-0.1-0.4c0-0.1-0.1-0.3-0.1-0.5
		c0-0.2,0-0.3,0-0.5c0-0.1,0-0.2,0-0.3C56.7,71,56.7,70.9,56.7,70.9z M54.9,62.1c-0.5,0.8-1,1.6-1.6,2.2c-0.7,0.7-1.4,1.4-2.1,1.9
		c-0.7,0.5-1.4,0.9-2,1.1c-0.6,0.2-1.2,0.2-1.8,0.1c-0.1,0-0.3-0.1-0.4-0.2c-0.1-0.1-0.3-0.1-0.4-0.2c-0.1-0.1-0.2-0.2-0.4-0.3
		c-0.1-0.1-0.2-0.2-0.3-0.4c-0.2-0.2-0.4-0.5-0.6-0.9c0-0.1-0.1-0.2-0.1-0.3c0-0.1-0.1-0.2-0.1-0.3c-0.1-0.2-0.2-0.4-0.3-0.6
		c-0.2-0.4-0.3-0.8-0.5-1.3c-0.1-0.5-0.3-0.9-0.3-1.4c-0.2-0.8-0.2-1.7-0.2-2.7C47.8,59.2,51.6,60.3,54.9,62.1z M39,59.1
		c0,0.9,0,1.8-0.2,2.7c-0.2,1-0.4,1.9-0.7,2.7c-0.2,0.4-0.3,0.8-0.5,1.1c-0.1,0.2-0.2,0.3-0.3,0.5c-0.1,0.1-0.2,0.3-0.3,0.4
		c-0.2,0.3-0.4,0.5-0.7,0.7c-0.2,0.2-0.5,0.3-0.8,0.4c-0.6,0.2-1.2,0.1-1.8,0c-0.6-0.2-1.3-0.5-2-1c-0.7-0.5-1.4-1.1-2.1-1.8
		C29,64,28.5,63.3,28,62.5C31.3,60.7,35.1,59.4,39,59.1z M27.2,86.9c0.4-8.1,7.2-14.3,15.3-13.9c6,0.3,11,4.2,13,9.5
		c-2,0.1-4,0.5-5.9,1c-1.4-2.6-4.1-4.5-7.3-4.7c-4.8-0.2-8.9,3.5-9.2,8.3c-0.1,2.3,0.7,4.4,2.1,6.1c-1.2,1.6-2.3,3.3-3.2,5.1
		C28.8,95.5,27,91.4,27.2,86.9z M24.1,65.2c0.5,0.7,0.9,1.5,1.3,2.3c0.2,0.5,0.4,0.9,0.5,1.4c0.1,0.5,0.3,0.9,0.3,1.3
		c0.1,0.4,0.1,0.8,0.2,1.2c0,0.4,0,0.7,0,1.1c0,0.3-0.1,0.6-0.2,0.9c-0.1,0.3-0.3,0.5-0.4,0.8c0,0.1-0.1,0.1-0.2,0.2
		c-0.1,0.1-0.1,0.1-0.2,0.2c-0.1,0.1-0.2,0.2-0.4,0.3c-0.1,0.1-0.3,0.1-0.4,0.2c-0.1,0.1-0.3,0.1-0.5,0.2c-0.3,0.1-0.7,0.2-1.1,0.2
		c-0.4,0-0.8,0.1-1.2,0c-0.2,0-0.4,0-0.7,0c-0.2,0-0.4,0-0.7-0.1c-0.5-0.1-0.9-0.2-1.4-0.3c-0.8-0.2-1.6-0.5-2.4-0.8
		C18.6,70.6,21.1,67.6,24.1,65.2z M13.4,89.7c-0.1-1.2-0.1-2.4-0.1-3.6c0.1-2.7,0.6-5.3,1.5-7.8c0.8,0.3,1.5,0.7,2.2,1.2
		c0.4,0.3,0.8,0.6,1.2,0.9c0.4,0.3,0.7,0.6,1,0.9c0.1,0.2,0.3,0.3,0.4,0.5c0.1,0.2,0.2,0.3,0.4,0.5c0.2,0.3,0.4,0.6,0.6,0.9
		c0.1,0.1,0.1,0.3,0.2,0.5c0.1,0.1,0.1,0.3,0.1,0.4c0,0.1,0,0.3,0,0.4c0,0.1,0,0.3,0,0.4c0,0.1-0.1,0.3-0.1,0.4
		c0,0.1-0.1,0.1-0.1,0.2c0,0.1-0.1,0.1-0.1,0.2c-0.1,0.3-0.3,0.5-0.5,0.8c-0.2,0.3-0.5,0.5-0.8,0.7c-0.3,0.2-0.6,0.5-1,0.7
		c-0.7,0.4-1.6,0.9-2.6,1.2C15.1,89.4,14.3,89.6,13.4,89.7z M20.7,103c-0.3,0.4-0.7,0.8-1,1.2c-0.2,0.2-0.4,0.4-0.6,0.5
		c-2.3-3-4-6.5-4.9-10.3c0.8-0.1,1.6-0.2,2.4-0.2c1,0,2,0.1,2.8,0.3c0.4,0.1,0.8,0.2,1.2,0.3c0.4,0.1,0.7,0.3,1,0.5
		c0.3,0.2,0.5,0.4,0.7,0.6c0.2,0.2,0.4,0.5,0.5,0.7c0.1,0.1,0.1,0.3,0.2,0.4c0,0.1,0.1,0.3,0.1,0.4c0,0.3,0,0.6,0,0.9
		c-0.1,0.7-0.3,1.4-0.7,2.2c-0.2,0.4-0.4,0.8-0.7,1.2C21.3,102.2,21.1,102.6,20.7,103z M22.2,108.2c0.6-0.6,1.2-1,1.9-1.4
		c0.2-0.1,0.4-0.3,0.6-0.4c0.2-0.1,0.4-0.2,0.6-0.3c0.4-0.2,0.8-0.4,1.2-0.5c0.2-0.1,0.4-0.1,0.6-0.2c0.2-0.1,0.4-0.1,0.6-0.1
		c0.4-0.1,0.7-0.1,1.1-0.1c0.3,0,0.5,0,0.8,0c-0.4,1.8-0.5,3.6-0.5,5.5c0,0.8,0,1.6,0.1,2.4C26.6,111.8,24.3,110.1,22.2,108.2z
		 M27.6,118.1c0.7-0.6,1.3-1.1,1.3-1.1c0.2-0.2,0.4-0.5,0.5-0.8c-0.1,0.3-0.2,0.6-0.2,0.9c0,0,0,0.2,0,0.5c0,0.2,0,0.5,0,0.7h-2
		C27.4,118.3,27.5,118.2,27.6,118.1z M13.7,149.8c-2.1-3.2-2.8-6.9-2.3-10.5h5.2c-0.6,2.6-0.2,5.4,1.3,7.7L13.7,149.8z M15,151.6
		l3.8-3.4c2.1,2.3,5,3.4,7.9,3.3l0.3,5.1C22.6,156.8,18.2,155.1,15,151.6z M21.4,145.9c-1.7-1.8-2-4.4-1.2-6.6h12
		c0.9,2.4,0.3,5.2-1.7,7.1C27.8,148.8,23.8,148.6,21.4,145.9z M36.2,152.8c-2,1.8-4.4,3-6.9,3.5l-1-5c1.6-0.3,3.2-1.1,4.6-2.3
		c0.9-0.8,1.7-1.8,2.2-2.9l4.5,2.3C38.7,150,37.6,151.5,36.2,152.8z M40.4,146.3l-4.8-1.6c0.6-1.7,0.6-3.6,0.2-5.4H41
		C41.3,141.7,41.1,144.1,40.4,146.3z"/>
</g>
</svg>
