<?xml version="1.0" encoding="utf-8"?>
<!-- Generator: Adobe Illustrator 20.0.0, SVG Export Plug-In . SVG Version: 6.00 Build 0)  -->
<svg version="1.1" id="Layer_1" xmlns="http://www.w3.org/2000/svg" xmlns:xlink="http://www.w3.org/1999/xlink" x="0px" y="0px"
	 viewBox="0 0 288 72" style="enable-background:new 0 0 288 72;" xml:space="preserve">
<style type="text/css">
	.st0{fill:#1E7BAC;}
	.st1{fill:#434345;}
	.st2{fill:#0DA9DA;}
</style>
<g>
	<path class="st0" d="M53.6,22.1l-0.3-0.2l-1-0.6l-14.8-8.5c-0.3-0.2-0.6-0.3-0.8-0.4c-0.9-0.4-1.7-0.5-2.5-0.5c0,0,0,0,0,0
		c0,0,0,0,0,0c-0.2,0-0.5,0-0.7,0.1c-1.2,0.1-2.1,0.6-3.3,1.3l-11.2,6.5c-1.4,0.8-2.8,1.5-4,2.3l-0.1,0c-1.1,0.7-2,1.6-2.6,2.6
		c-0.1,0.1-0.1,0.3-0.2,0.4c-0.1,0.3-0.2,0.6-0.3,0.9c0,0.1-0.1,0.3-0.1,0.4c-0.1,0.4-0.1,0.9-0.1,1.3v2.9v12.5c0,0.9,0,1.7,0,2.6
		v0.5c0,1,0.2,1.9,0.6,2.7c0.1,0.2,0.2,0.4,0.3,0.6c0,0,0,0.1,0.1,0.1c0.3,0.6,0.8,1.2,1.5,1.7c0.3,0.2,0.6,0.5,0.9,0.7l16,9.2
		c2.1,1.2,4.5,1.2,6.6,0l16-9.2c2.1-1.2,3.3-3.3,3.3-5.8v-8.6v-9.9C57,25.4,55.8,23.3,53.6,22.1z M42.5,51.4l-5.8,3.3h0
		c-0.8,0.4-1.6,0.7-2.4,0.7c-0.8,0-1.6-0.2-2.4-0.7h0l-5.8-3.3v-5.7l6,3.5l0,0c0.7,0.4,1.4,0.6,2.1,0.6c0.7,0,1.5-0.2,2.1-0.6l0,0
		l6-3.5V51.4z M42.5,42l-5.8,3.3h0c-0.8,0.4-1.6,0.7-2.4,0.7c-0.8,0-1.6-0.2-2.4-0.7h0L26.2,42v-5.7l6,3.5l0,0
		c0.7,0.4,1.4,0.6,2.1,0.6c0.7,0,1.5-0.2,2.1-0.6l0,0l6-3.5V42z M50.6,44c0,0.9-0.2,1.7-0.6,2.4v0c-0.4,0.7-1,1.3-1.8,1.7l-2.5,1.5
		V31.9v-1.1l-1,0.6l-8,4.6c-0.8,0.4-1.6,0.7-2.4,0.7c-0.8,0-1.6-0.2-2.4-0.7l0,0l-8-4.6l-1-0.6v1.1v17.6l-2.5-1.5
		c-0.8-0.4-1.3-1-1.8-1.7C18.3,45.6,18,44.8,18,44V27.4c0-0.5,0.1-1,0.4-1.5l0,0c0.3-0.4,0.6-0.8,1.1-1.1c0.5-0.3,1-0.4,1.5-0.4
		c0.5,0,1,0.1,1.5,0.4l9.7,5.6h0c0.7,0.4,1.4,0.6,2.1,0.6c0.7,0,1.4-0.2,2.1-0.6l9.7-5.6c0.5-0.3,1-0.4,1.5-0.4c0.5,0,1,0.1,1.5,0.4
		h0c0.5,0.3,0.8,0.6,1.1,1.1c0.2,0.4,0.4,0.9,0.4,1.5V44z"/>
	<path class="st1" d="M71.3,31.9c1.2-1.8,2.8-2.7,4.9-2.7c1,0,2,0.3,2.8,0.9c0.7,0.5,1.2,1.2,1.6,2c0.5-0.8,1.1-1.4,1.6-1.8
		c1.1-0.8,2.3-1.2,3.7-1.2c1.6,0,2.8,0.6,3.7,1.8c0.8,1,1.2,2.3,1.2,3.7v8.3c0,0.4-0.1,0.7-0.4,0.9c-0.3,0.2-0.6,0.4-0.9,0.4
		c-0.4,0-0.7-0.1-0.9-0.4c-0.2-0.2-0.4-0.6-0.4-0.9v-7.8c0-1.2-0.2-2.1-0.6-2.7c-0.4-0.6-1.2-0.9-2.3-0.9c-1.7,0-3.1,0.9-4.2,2.8
		v8.6c0,0.4-0.1,0.7-0.4,0.9c-0.3,0.2-0.6,0.4-0.9,0.4c-0.4,0-0.7-0.1-0.9-0.4c-0.2-0.2-0.4-0.6-0.4-0.9v-7.8c0-1.2-0.2-2.1-0.6-2.7
		c-0.4-0.6-1.2-0.9-2.3-0.9c-1.7,0-3.1,0.9-4.2,2.8v8.6c0,0.4-0.1,0.7-0.4,0.9c-0.3,0.2-0.6,0.4-0.9,0.4c-0.4,0-0.7-0.1-0.9-0.4
		c-0.3-0.2-0.4-0.6-0.4-0.9V30.7c0-0.4,0.1-0.7,0.4-0.9c0.2-0.3,0.6-0.4,0.9-0.4c0.4,0,0.7,0.1,0.9,0.4c0.3,0.3,0.4,0.6,0.4,0.9
		V31.9z"/>
	<path class="st1" d="M100.8,29.2c2.2,0,4,0.7,5.4,2.1c1.3,1.4,2,3.3,2,5.5c0,2.3-0.7,4.1-2,5.5c-1.3,1.4-3.1,2.1-5.4,2.1
		c-2.2,0-4-0.7-5.4-2.1c-1.3-1.4-2-3.2-2-5.5c0-2.3,0.7-4.1,2-5.5C96.8,29.9,98.6,29.2,100.8,29.2z M97.6,40.9
		c0.5,0.4,1,0.7,1.5,0.9c0.6,0.2,1.1,0.3,1.7,0.3c0.5,0,1.1-0.1,1.7-0.3c0.6-0.2,1.1-0.5,1.5-0.9c1-0.9,1.6-2.3,1.6-4.1
		c0-1.7-0.5-3.1-1.6-4c-0.9-0.8-1.9-1.2-3.2-1.2c-2.1,0-3.5,0.9-4.3,2.8c-0.3,0.7-0.4,1.5-0.4,2.4c0,1,0.1,1.8,0.4,2.4
		C96.8,40,97.2,40.5,97.6,40.9z"/>
	<path class="st1" d="M116.3,42.2c0.5,0,0.9,0,1.1-0.1c0.2-0.1,0.5-0.1,0.7-0.1s0.5,0.1,0.7,0.3c0.2,0.2,0.3,0.5,0.3,0.9
		c0,0.4-0.2,0.7-0.6,0.8c-0.8,0.4-1.5,0.6-2.1,0.6c-0.6,0-1.1,0-1.6-0.1c-0.5-0.1-0.9-0.2-1.4-0.5c-1.1-0.6-1.6-1.7-1.6-3.2v-8.9h-2
		c-0.4,0-0.5-0.2-0.5-0.5c0-0.2,0.1-0.3,0.3-0.5l3.9-3.8c0.2-0.2,0.3-0.3,0.5-0.3s0.3,0.1,0.4,0.2c0.1,0.1,0.2,0.3,0.2,0.4v2.3h3.3
		c0.3,0,0.6,0.1,0.8,0.3c0.2,0.2,0.3,0.5,0.3,0.8c0,0.3-0.1,0.6-0.3,0.8c-0.2,0.2-0.5,0.3-0.8,0.3h-3.3v8.7c0,0.7,0.2,1.2,0.7,1.5
		C115.4,42.1,115.8,42.2,116.3,42.2z"/>
	<path class="st1" d="M125,25.1c0,0.4-0.1,0.7-0.4,1c-0.3,0.3-0.6,0.4-1,0.4h-0.2c-0.4,0-0.7-0.1-1-0.4c-0.3-0.3-0.4-0.6-0.4-1V25
		c0-0.4,0.1-0.7,0.4-1c0.3-0.3,0.6-0.4,1-0.4h0.2c0.4,0,0.7,0.1,1,0.4c0.3,0.3,0.4,0.6,0.4,1V25.1z M122.5,29.8
		c0.2-0.2,0.6-0.4,0.9-0.4c0.4,0,0.7,0.1,0.9,0.4c0.2,0.2,0.4,0.6,0.4,1v12.4c0,0.4-0.1,0.7-0.4,0.9c-0.2,0.2-0.6,0.4-0.9,0.4
		c-0.4,0-0.7-0.1-0.9-0.4c-0.2-0.2-0.4-0.6-0.4-0.9V30.7C122.1,30.3,122.2,30,122.5,29.8z"/>
	<path class="st1" d="M139.2,30.1c0.2-0.5,0.7-0.7,1.3-0.7c0.3,0,0.6,0.1,0.8,0.4c0.2,0.3,0.4,0.5,0.4,0.7c0,0.3,0,0.6-0.1,0.8
		l-5,12c-0.1,0.3-0.3,0.5-0.6,0.7c-0.3,0.2-0.6,0.3-1,0.3h-0.3c-0.4,0-0.7-0.1-1-0.3c-0.3-0.2-0.5-0.5-0.6-0.7l-5-12
		c-0.1-0.2-0.1-0.5-0.1-0.7c0-0.3,0.1-0.5,0.4-0.8c0.2-0.3,0.5-0.4,0.8-0.4c0.6,0,1,0.2,1.3,0.7l4.4,11.2L139.2,30.1z"/>
	<path class="st1" d="M148,25.1c0,0.4-0.1,0.7-0.4,1c-0.3,0.3-0.6,0.4-1,0.4h-0.2c-0.4,0-0.7-0.1-1-0.4c-0.3-0.3-0.4-0.6-0.4-1V25
		c0-0.4,0.1-0.7,0.4-1c0.3-0.3,0.6-0.4,1-0.4h0.2c0.4,0,0.7,0.1,1,0.4c0.3,0.3,0.4,0.6,0.4,1V25.1z M145.5,29.8
		c0.2-0.2,0.6-0.4,0.9-0.4c0.4,0,0.7,0.1,0.9,0.4c0.2,0.2,0.4,0.6,0.4,1v12.4c0,0.4-0.1,0.7-0.4,0.9c-0.2,0.2-0.6,0.4-0.9,0.4
		c-0.4,0-0.7-0.1-0.9-0.4c-0.2-0.2-0.4-0.6-0.4-0.9V30.7C145.1,30.3,145.2,30,145.5,29.8z"/>
	<path class="st1" d="M156.7,42.1c2.1,0,3.2-0.7,3.2-2c0-0.4-0.2-0.7-0.6-1c-0.4-0.2-1-0.4-1.6-0.6c-0.6-0.2-1.3-0.4-2.1-0.5
		c-0.7-0.2-1.4-0.4-2.1-0.8c-0.6-0.3-1.2-0.8-1.6-1.3c-0.4-0.5-0.6-1.2-0.6-1.9s0.1-1.4,0.3-2c0.2-0.6,0.6-1,1-1.4
		c1-0.9,2.4-1.3,4.2-1.3c1.4,0,2.8,0.2,4.2,0.7c0.3,0.1,0.5,0.3,0.6,0.5c0.1,0.2,0.2,0.4,0.2,0.7c0,0.3-0.1,0.5-0.3,0.7
		c-0.2,0.2-0.4,0.3-0.6,0.3c-0.2,0-0.5,0-0.8-0.1c-0.9-0.3-1.9-0.4-3-0.4c-1.1,0-1.9,0.2-2.5,0.6c-0.6,0.4-0.9,0.8-0.9,1.4
		s0.2,0.9,0.6,1.2c0.4,0.3,1,0.5,1.6,0.6c0.6,0.2,1.3,0.3,2.1,0.5c0.8,0.2,1.5,0.4,2.1,0.7c1.5,0.8,2.2,2,2.2,3.6
		c0,1.2-0.5,2.2-1.4,3c-1,0.8-2.4,1.3-4.2,1.3c-1.9,0-3.7-0.4-5.2-1.3c-0.3-0.2-0.5-0.5-0.5-0.9s0.1-0.6,0.3-0.9
		c0.2-0.2,0.4-0.4,0.7-0.4s0.5,0.1,0.9,0.2C154.2,41.9,155.4,42.1,156.7,42.1z"/>
	<path class="st2" d="M168.7,23.4c0.2-0.2,0.6-0.4,0.9-0.4c0.4,0,0.7,0.1,0.9,0.4c0.2,0.2,0.4,0.6,0.4,1v18.7c0,0.4-0.1,0.7-0.4,0.9
		c-0.2,0.2-0.6,0.4-0.9,0.4c-0.4,0-0.7-0.1-0.9-0.4c-0.2-0.2-0.4-0.6-0.4-0.9V24.4C168.3,24,168.5,23.7,168.7,23.4z"/>
	<path class="st2" d="M179,40.9c0.8,0.8,2,1.2,3.5,1.2c1.5,0,2.7-0.2,3.7-0.7c0.3-0.2,0.6-0.3,0.9-0.3s0.5,0.1,0.7,0.3
		c0.2,0.2,0.3,0.5,0.3,0.7c0,0.5-0.2,0.9-0.6,1.1c-0.4,0.2-0.8,0.4-1.1,0.6c-0.3,0.2-0.7,0.3-1.1,0.4c-0.9,0.2-1.9,0.4-3,0.4
		c-2.4,0-4.2-0.7-5.5-2c-1.3-1.3-2-3.2-2-5.7c0-2.1,0.5-3.9,1.6-5.3c1.2-1.6,3-2.4,5.2-2.4c2.2,0,3.9,0.7,5.1,2.2
		c1.2,1.4,1.8,3.1,1.8,5.1c0,0.4-0.1,0.7-0.4,0.9c-0.2,0.2-0.6,0.4-1,0.4h-9.8C177.7,39.1,178.2,40.2,179,40.9z M181.8,31.5
		c-1.7,0-3,0.8-3.7,2.3c-0.3,0.5-0.5,1.2-0.5,1.9h8.5c-0.1-1.4-0.6-2.4-1.5-3.2C183.8,31.8,182.9,31.5,181.8,31.5z"/>
	<path class="st2" d="M192.7,30.3c1.6-0.7,3.3-1,5-1c2,0,3.5,0.6,4.6,1.8c1,1,1.4,2.3,1.4,3.9v8.2c0,0.4-0.1,0.7-0.4,0.9
		c-0.3,0.2-0.6,0.4-0.9,0.4c-0.4,0-0.7-0.1-0.9-0.4c-0.2-0.2-0.4-0.6-0.4-0.9v-0.7c-0.5,0.5-1.2,1-2.1,1.5c-0.9,0.5-2,0.7-3.3,0.7
		c-1.3,0-2.4-0.4-3.3-1.2c-0.9-0.8-1.4-1.9-1.4-3.2c0-1.4,0.5-2.5,1.6-3.3c1.2-0.9,2.8-1.3,5-1.3h3.5v-0.2c0-1.3-0.3-2.2-1-2.8
		c-0.6-0.5-1.6-0.8-2.9-0.8c-1.1,0-2.4,0.2-3.8,0.7c-0.2,0-0.3,0.1-0.5,0.1s-0.4-0.1-0.6-0.3c-0.2-0.2-0.3-0.5-0.3-0.9
		C192,30.8,192.2,30.5,192.7,30.3z M193.6,39.9c0,1.5,1,2.3,3.1,2.3c0.9,0,1.7-0.2,2.5-0.7c0.8-0.4,1.4-0.9,1.9-1.5v-2.4H198
		c-1.4,0-2.4,0.2-3.2,0.5C194,38.5,193.6,39.1,193.6,39.9z"/>
	<path class="st2" d="M210.8,32c1.3-1.8,2.9-2.7,4.5-2.7h0.1c0.4,0,0.7,0.1,0.9,0.4c0.2,0.2,0.4,0.6,0.4,0.9c0,0.4-0.1,0.7-0.4,0.9
		c-0.3,0.2-0.6,0.3-1,0.3h-0.1c-1,0-1.8,0.2-2.6,0.7c-0.8,0.5-1.4,1.1-1.9,1.8v8.8c0,0.4-0.1,0.7-0.4,0.9c-0.3,0.2-0.6,0.4-0.9,0.4
		s-0.7-0.1-0.9-0.4c-0.3-0.2-0.4-0.6-0.4-0.9V30.7c0-0.4,0.1-0.7,0.4-0.9c0.2-0.3,0.6-0.4,0.9-0.4s0.7,0.1,0.9,0.4
		c0.3,0.3,0.4,0.6,0.4,0.9V32z"/>
	<path class="st2" d="M226.7,31.7c-1.7,0-3.3,0.9-4.7,2.8v8.6c0,0.4-0.1,0.7-0.4,0.9c-0.3,0.2-0.6,0.4-0.9,0.4
		c-0.4,0-0.7-0.1-0.9-0.4c-0.2-0.2-0.4-0.6-0.4-0.9V30.7c0-0.4,0.1-0.7,0.4-1c0.2-0.2,0.6-0.4,0.9-0.4c0.4,0,0.7,0.1,0.9,0.4
		c0.3,0.2,0.4,0.6,0.4,1v1.2c0.8-0.8,1.4-1.4,2-1.7c1.1-0.6,2.1-1,3.1-1c1,0,1.8,0.1,2.4,0.4c0.6,0.3,1.2,0.7,1.6,1.2
		c0.9,1.1,1.4,2.4,1.4,4v8.2c0,0.4-0.1,0.7-0.4,0.9c-0.3,0.2-0.6,0.4-0.9,0.4s-0.7-0.1-0.9-0.4c-0.2-0.2-0.4-0.6-0.4-0.9v-7.9
		c0-1.1-0.2-2-0.7-2.6C228.6,32,227.8,31.7,226.7,31.7z"/>
	<path class="st2" d="M239.9,25.1c0,0.4-0.1,0.7-0.4,1c-0.3,0.3-0.6,0.4-1,0.4h-0.2c-0.4,0-0.7-0.1-1-0.4c-0.3-0.3-0.4-0.6-0.4-1V25
		c0-0.4,0.1-0.7,0.4-1c0.3-0.3,0.6-0.4,1-0.4h0.2c0.4,0,0.7,0.1,1,0.4c0.3,0.3,0.4,0.6,0.4,1V25.1z M237.4,29.8
		c0.2-0.2,0.6-0.4,0.9-0.4c0.4,0,0.7,0.1,0.9,0.4s0.4,0.6,0.4,1v12.4c0,0.4-0.1,0.7-0.4,0.9c-0.2,0.2-0.6,0.4-0.9,0.4
		c-0.4,0-0.7-0.1-0.9-0.4c-0.2-0.2-0.4-0.6-0.4-0.9V30.7C237,30.3,237.1,30,237.4,29.8z"/>
	<path class="st2" d="M251.7,31.7c-1.7,0-3.3,0.9-4.7,2.8v8.6c0,0.4-0.1,0.7-0.4,0.9c-0.3,0.2-0.6,0.4-0.9,0.4s-0.7-0.1-0.9-0.4
		c-0.3-0.2-0.4-0.6-0.4-0.9V30.7c0-0.4,0.1-0.7,0.4-1c0.2-0.2,0.6-0.4,0.9-0.4s0.7,0.1,0.9,0.4c0.3,0.2,0.4,0.6,0.4,1v1.2
		c0.8-0.8,1.4-1.4,2-1.7c1.1-0.6,2.1-1,3.1-1c1,0,1.8,0.1,2.4,0.4c0.6,0.3,1.2,0.7,1.6,1.2c0.9,1.1,1.4,2.4,1.4,4v8.2
		c0,0.4-0.1,0.7-0.4,0.9c-0.3,0.2-0.6,0.4-0.9,0.4c-0.4,0-0.7-0.1-0.9-0.4c-0.2-0.2-0.4-0.6-0.4-0.9v-7.9c0-1.1-0.2-2-0.7-2.6
		C253.6,32,252.8,31.7,251.7,31.7z"/>
	<path class="st2" d="M272.9,31.4v-0.7c0-0.4,0.1-0.7,0.4-0.9c0.2-0.3,0.6-0.4,0.9-0.4c0.4,0,0.7,0.1,0.9,0.4
		c0.3,0.3,0.4,0.6,0.4,0.9v12.9c0,2.4-0.6,4.3-1.8,5.6c-1.2,1.3-2.8,1.9-5,1.9c-2.3,0-4.4-0.5-6.2-1.5c-0.3-0.2-0.5-0.5-0.5-0.9
		c0-0.4,0.1-0.7,0.3-0.9c0.2-0.2,0.5-0.4,0.7-0.4c0.2,0,0.5,0,0.6,0.1c1.5,0.7,3,1.1,4.8,1.1c2.9,0,4.4-1.6,4.4-4.7V42
		c-1.4,1.5-3,2.2-4.9,2.2c-1.8,0-3.4-0.6-4.7-1.8c-1.5-1.4-2.3-3.3-2.3-5.6c0-2.4,0.8-4.2,2.3-5.7c1.3-1.2,2.9-1.8,4.8-1.8
		C269.9,29.2,271.5,30,272.9,31.4z M272.9,33.8c-0.5-0.6-1.2-1.1-1.8-1.5c-0.7-0.4-1.5-0.6-2.3-0.6c-0.8,0-1.6,0.1-2.2,0.3
		c-0.6,0.2-1.1,0.5-1.6,0.9c-0.9,0.9-1.4,2.2-1.4,3.9c0,2.5,1,4.1,3,4.8c0.6,0.2,1.3,0.3,2.2,0.3c1.4,0,2.8-0.7,4.2-2.1V33.8z"/>
</g>
</svg>
